<?xml version="1.0" encoding="utf-8"?>
<svg version="1.1" xmlns:xlink="http://www.w3.org/1999/xlink" width="20px" height="4px" xmlns="http://www.w3.org/2000/svg">
  <g>
    <path d="M 0.595002440396811 0.571486325810975  C 0.958499357960516 0.167995493099402  1.42150267046994 0  1.98350433295805 0  C 2.57850700769294 0  3.04150657079302 0.167995493099402  3.43800801567478 0.571486208645151  C 3.80150434739327 0.941477018157891  4.00001752848872 1.4114636448507  4.00001752848872 1.98295002924459  C 4.00001752848872 2.58793599746547  3.80151700164983 3.05892292738343  3.43801551449348 3.42841332166049  C 3.04531081525563 3.80012283665022  2.52371384245376 4.00499313876933  1.98300425548588 3.99990767333043  C 1.42200263077307 3.99990767333043  0.958999494017208 3.79840026470103  0.595002440396811 3.42841004101741  C 0.1985004389621 3.02492281115494  0 2.55493202507536  0 1.98344985865115  C 0 1.41196370858891  0.1985004389621 0.940977130168419  0.595002440396811 0.571486325810975  Z M 9.98349884944687 0  C 10.5455015664564 0  11.041501555958 0.167995493099402  11.4380034695159 0.571486208645151  C 11.8015030819676 0.941476666660418  12.0000043118208 1.4114636448507  12.0000043118208 1.98295002924459  C 12.0000043118208 2.58793599746547  11.8015030819676 3.05892292738343  11.4380034695159 3.42841332166049  C 11.0453043943921 3.80011768135395  10.5237156234232 4.00498892079965  9.9830123635836 3.99990767333043  C 9.42151113007479 3.99990767333043  8.95851156697472 3.79841291861006  8.56200965341679 3.4284210546049  C 8.16550773985885 3.02492281115494  7.99999568817925 2.55493202507536  7.99999568817925 1.98344985865115  C 7.99999568817925 1.41196370858891  8.16499500813013 0.940977130168419  8.5619974678364 0.571486325810975  C 8.95849563198497 0.167995493099402  9.4215139421318 0  9.9835194711983 0  Z M 17.9834964123308 0  C 18.5454991293403 0  19.0084986924404 0.167995493099402  19.4049987312936 0.571486208645151  C 19.8015006448515 0.941476666660418  20 1.4114636448507  20 1.98295002924459  C 20 2.58793599746547  19.8015006448515 3.05892292738343  19.4049987312936 3.42841332166049  C 19.0085399359432 3.79840026470103  18.5450135808293 3.99990767333043  17.9835132846729 3.99990767333043  C 17.4215124423681 3.99990767333043  16.958512879268 3.79841291861006  16.5620128404147 3.4284210546049  C 16.1655034280381 3.02492281115494  16.0000307451567 2.55493202507536  16.0000307451567 1.98344985865115  C 16.0000307451567 1.41196370858891  16.1650291277552 0.940977130168419  16.5620315874615 0.571486325810975  C 16.9585278769054 0.167995493099402  17.4215086929587 0  17.9835132846729 0  Z " fill-rule="nonzero" fill="#424242" stroke="none" />
  </g>
</svg>