<?xml version="1.0" encoding="utf-8"?>
<svg version="1.1" xmlns:xlink="http://www.w3.org/1999/xlink" width="17px" height="18px" xmlns="http://www.w3.org/2000/svg">
  <g>
    <path d="M 16.9999961114317 4.12500263407328  C 16.9999961114317 4.12500263407328  16.9999961114317 14.9999974838703  16.9999961114317 14.9999974838703  C 16.9999961114317 16.6499970278218  15.6090863488608 18  13.9090781828675 18  C 13.9090781828675 18  8.26818105814348 18  8.26818105814348 18  C 7.4336359783146 18  6.64545429800019 17.6775026238515  6.06590597121682 17.1075030044161  C 6.06590597121682 17.1075030044161  0 11.1224956777609  0 11.1224956777609  C 0 11.1224956777609  0.973635278372309 10.1999976096768  1.00454161900311 10.1849970734266  C 1.17454204674562 10.0424966967935  1.38318317741318 9.96749873328595  1.61500017498557 9.96749873328595  C 1.78499671415981 9.96749873328595  1.93954397158692 10.0124984549391  2.07863805869863 10.0874983055439  C 2.10954439932942 10.094998573669  5.40908401571989 11.9324963288095  5.40908401571989 11.9324963288095  C 5.40908401571989 11.9324963288095  5.40908401571989 3.00000345967834  5.40908401571989 3.00000345967834  C 5.40908401571989 2.37750455812621  5.9268118841051 1.87500440322698  6.56817678071837 1.87500440322698  C 7.20953778876336 1.87500440322698  7.72726954571687 2.37750455812621  7.72726954571687 3.00000345967834  C 7.72726954571687 3.00000345967834  7.72726954571687 8.25000432459793  7.72726954571687 8.25000432459793  L 8.4999941671476 8.25000432459793  C 8.4999941671476 8.25000432459793  8.4999941671476 1.12499893850778  8.4999941671476 1.12499893850778  C 8.4999941671476 0.502500154899235  9.01772592410109 0  9.65908693214609 0  C 10.3004479401911 0  10.8181758085763 0.502500154899235  10.8181758085763 1.12499893850778  C 10.8181758085763 1.12499893850778  10.8181758085763 8.24998734072244  10.8181758085763 8.24998734072244  L 11.5909043185753 8.24998734072244  C 11.5909043185753 8.24998734072244  11.5909043185753 1.8750042852834  11.5909043185753 1.8750042852834  C 11.5909043185753 1.25250538373127  12.1086321869605 0.750005228832037  12.7499970835738 0.750005228832037  C 13.3913580916188 0.750005228832037  13.9090898485723 1.25250538373127  13.9090898485723 1.8750042852834  C 13.9090898485723 1.8750042852834  13.9090898485723 8.25000432459793  13.9090898485723 8.25000432459793  L 14.681814470003 8.25000432459793  C 14.681814470003 8.25000432459793  14.681814470003 4.12500263407328  14.681814470003 4.12500263407328  C 14.681814470003 3.502503496634  15.1995423383882 3.00000345967834  15.8409072350015 3.00000345967834  C 16.4822682430465 3.00000345967834  17 3.502503496634  17 4.12500263407328  Z " fill-rule="nonzero" fill="#424242" stroke="none" />
  </g>
</svg>