<?xml version="1.0" encoding="utf-8"?>
<svg version="1.1" xmlns:xlink="http://www.w3.org/1999/xlink" width="18px" height="18px" xmlns="http://www.w3.org/2000/svg">
  <g transform="matrix(1 0 0 1 -925 -12 )">
    <path d="M 18 10.4284729060281  C 18 10.494830109773  17.9745178330664 10.5611873135179  17.9239654863292 10.6117353731718  C 17.8753052286338 10.6605132970009  17.809196553041 10.6878817332241  17.7402955202334 10.6877596548913  C 17.7402955202334 10.6877596548913  10.6523163467762 10.6877596548913  10.6523163467762 10.6877596548913  C 10.6523163467762 10.6877596548913  10.6523163467762 17.7407285109283  10.6523163467762 17.7407285109283  C 10.6523163467762 17.8066508106128  10.6268418092339 17.873412398835  10.576297091888 17.9243953625493  C 10.5276063166274 17.9728070513801  10.4617188933822 18  10.3930391129222 18  C 10.3930391129222 18  7.53659501114103 18  7.53659501114103 18  C 7.46796863642009 18  7.40210410134883 17.9728452008591  7.35339043791434 17.9244411419241  C 7.30283046178586 17.873412398835  7.27731777728705 17.8075129888379  7.27731777728705 17.7407285109283  C 7.27731777728705 17.7407285109283  7.27731777728705 10.6877596548913  7.27731777728705 10.6877596548913  C 7.27731777728705 10.6877596548913  0.259292492636578 10.6877596548913  0.259292492636578 10.6877596548913  C 0.192916788348401 10.6877596548913  0.126560157538453 10.6622605431384  0.0760230695838633 10.6117353731718  C 0.0273132208450229 10.563026118405  -2.28881738995827E-05 10.4969359610129  0 10.4280532617593  C 0 10.4280532617593  0 7.57195436813654  0 7.57195436813654  C -2.28881738995827E-05 7.50319374721562  0.027328479627625 7.43725618773952  0.0760230695838633 7.38869953088857  C 0.124572701105456 7.33999790601749  0.190517344785332 7.31265235948169  0.259292492636578 7.31267524916908  C 0.259292492636578 7.31267524916908  7.27734066546094 7.31267524916908  7.27734066546094 7.31267524916908  C 7.27734066546094 7.31267524916908  7.27734066546094 0.259271489071658  7.27734066546094 0.259271489071658  C 7.27734066546094 0.192929545118329  7.30284572056846 0.126587601165  7.35335992034916 0.0760166518236935  C 7.40387412012985 0.0254609622739873  7.47026508320063 0  7.53662552870622 0  C 7.53662552870622 0  10.39308488927 0.000442533956222525  10.39308488927 0.000442533956222525  C 10.4594224466017 0.000442533956222525  10.5257981508899 0.0254762220655739  10.5763199800619 0.0764668156757057  C 10.6272995727117 0.126984355746435  10.6523392349501 0.193364449178748  10.6523392349501 0.25972165292367  C 10.6523392349501 0.25972165292367  10.6523392349501 7.3126370996901  10.6523392349501 7.3126370996901  C 10.6523392349501 7.3126370996901  17.7407075073634 7.3126370996901  17.7407075073634 7.3126370996901  C 17.8070755822603 7.3126370996901  17.8734360277659 7.33813621144306  17.9239654863292 7.38865375151379  C 17.972686779155 7.43738589596807  18.0000381469565 7.5034760533601  18 7.57236638250957  C 18 7.57236638250957  18 10.4284576462365  18 10.4284576462365  Z " fill-rule="nonzero" fill="#bdbdbd" stroke="none" transform="matrix(1 0 0 1 925 12 )" />
  </g>
</svg>