<?xml version="1.0" encoding="utf-8"?>
<svg version="1.1" xmlns:xlink="http://www.w3.org/1999/xlink" width="17px" height="17px" xmlns="http://www.w3.org/2000/svg">
  <g>
    <path d="M 17 14.8750009719884  C 17 14.8750009719884  17 2.125  17 2.125  C 17 0.95625  16.0437509719884 0  14.8750009719884 0  C 14.8750009719884 0  2.125 0  2.125 0  C 0.95625 0  0 0.95625  0 2.125  C 0 2.125  0 14.8750009719884  0 14.8750009719884  C 0 16.0437509719884  0.95625 17  2.125 17  C 2.125 17  14.8750009719884 17  14.8750009719884 17  C 16.0437509719884 17  17 16.0437509719884  17 14.8750009719884  Z M 13.8125 4.25  L 13.8125 6.375  L 9.56250097198844 6.375  L 9.56250097198844 13.8125  L 7.43750048599422 13.8125  L 7.43750048599422 6.375  L 3.1875 6.375  L 3.1875 4.25  L 13.8125 4.25  Z " fill-rule="nonzero" fill="#424242" stroke="none" />
  </g>
</svg>