<?xml version="1.0" encoding="utf-8"?>
<svg version="1.1" xmlns:xlink="http://www.w3.org/1999/xlink" width="20px" height="18px" xmlns="http://www.w3.org/2000/svg">
  <g>
    <path d="M 7.3799955787104 2.56104303143622  C 7.3799955787104 3.97223772884411  8.55571331577579 5.12135968039171  9.99999624678302 5.12135968039171  C 11.4449997954497 5.12135968039171  12.6207175325151 3.97296411132484  12.6207175325151 2.56104303143622  C 12.6207175325151 1.14840313555104  11.4449997954497 0  9.99999624678302 0  C 8.55571331577579 0  7.3799955787104 1.14840313555104  7.3799955787104 2.56104303143622  Z M 3.52857943364707 9.3599981840438  L 3.52856442077916 9  L 16.5600039934229 9  L 16.5600039934229 11.9469639902611  L 18.287144368617 11.9469639902611  L 18.287144368617 7.63992446967353  L 10.9078543946981 7.63992446967353  L 10.9078543946981 5.84639532693937  L 9.18071401950397 5.84639532693937  L 9.18071401950397 7.6391980871928  L 1.80643083703118 7.6391980871928  L 1.80643083703118 8.58384337041471  L 1.80071844079357 8.58384337041471  L 1.80071844079357 11.9462376077804  L 3.52857943364707 11.9462376077804  L 3.52857943364707 9.3599981840438  Z M 20 15.4389569685638  C 20 14.0270358886752  18.8242897693686 12.8779139371276  17.3799993319274 12.8779139371276  C 15.9350032896947 12.8779139371276  14.7592855526293 14.0263170726786  14.7592855526293 15.4389569685638  C 14.7592855526293 16.8508780484524  15.9350032896947 17.9992736175193  17.3799993319274 17.9992736175193  C 18.824214705029 18  20 16.8508780484524  20 15.4389569685638  Z M 2.62072128573203 12.8779139371276  C 1.17571398384841 12.8772026876152  0 14.025598256682  0 15.438230586083  C 0 16.8508780484524  1.17571398384841 18  2.62142689052354 18  C 4.06570982153078 18  5.24142755859616 16.8508780484524  5.24142755859616 15.4389569685638  C 5.24142755859616 14.0263170726786  4.06570982153078 12.8772026876152  2.62072128573203 12.8772026876152  Z M 12.6207175325151 15.4389569685638  C 12.6207175325151 14.0270358886752  11.4449997954497 12.8779139371276  9.99999624678302 12.8779139371276  C 8.55571331577579 12.8779139371276  7.3799955787104 14.0263170726786  7.3799955787104 15.4389569685638  C 7.3799955787104 16.8508780484524  8.55571331577579 17.9992736175193  9.99999624678302 17.9992736175193  C 11.4449997954497 17.9992736175193  12.6207175325151 16.8508780484524  12.6207175325151 15.4389569685638  Z " fill-rule="nonzero" fill="#424242" stroke="none" />
  </g>
</svg>