<?xml version="1.0" encoding="utf-8"?>
<svg version="1.1" xmlns:xlink="http://www.w3.org/1999/xlink" width="14px" height="3px" xmlns="http://www.w3.org/2000/svg">
  <g transform="matrix(1 0 0 1 -3 -6 )">
    <path d="M 7.64697751403237 1.00001314699662  C 7.65788202103161 0.645964529403258  7.44186527322113 0.314765391846233  7.08275374835044 0.134940772780507  C 6.72361150655865 -0.0448575522921789  6.27795505641869 -0.0449890222578652  5.91870530540299 0.13462524486286  C 5.55945555438732 0.314239511983487  5.34316235428663 0.645333473567963  5.3537750505353 0.999355797168137  C 5.36962498183572 1.52757582530276  5.8780975356759 1.94888447734115  6.50000767923034 1.94904224129998  C 7.12194853970576 1.94922629925198  7.63072826275724 1.52823317513114  7.64697751403237 1.00001314699662  Z M 0.00039931997459449 1.00001314699662  C -0.0104898285641375 1.35403547059679  0.20554227770693 1.68523460815382  0.564653802577622 1.86505922721954  C 0.923780685908906 2.04485755229218  1.36942177758828 2.04498902225787  1.72868688706457 1.86540104913038  C 2.08793663808024 1.68576048801656  2.30422983818093 1.35469282042517  2.29360178347167 1.00064420283191  C 2.27778256909245 0.472397880704153  1.76932537371267 0.0511155226588976  1.14738451323722 0.050957758700025  C 0.525459011222309 0.0507737007480641  0.0166485712497279 0.471766824868859  0.00039931997459449 1.00001314699662  Z M 12.9996006800254 1.00001314699662  C 13.0105051870247 0.645964529403258  12.794457722293 0.314791685839419  12.4353461974223 0.134967066773596  C 12.0762346725518 -0.0448575522921789  11.6305782224118 -0.0449890222578652  11.2713131129355 0.13462524486286  C 10.9120787203803 0.314239511983487  10.6957701618191 0.645333473567963  10.7063674996072 0.999355797168137  C 10.7222327893682 1.52760211929585  11.2306746262873 1.94888447734115  11.8526308452233 1.94904224129998  C 12.4745563472383 1.94922629925198  12.9833360702897 1.52825946912428  12.9996006800254 1.00001314699662  Z " fill-rule="nonzero" fill="#424242" stroke="none" transform="matrix(1 0 0 1 3 6 )" />
  </g>
</svg>