<?xml version="1.0" encoding="utf-8"?>
<svg version="1.1" xmlns:xlink="http://www.w3.org/1999/xlink" width="216px" height="43px" xmlns="http://www.w3.org/2000/svg">
  <g>
    <path d="M 8 43  L 208 42.9990228675004  L 208 34.9999999812902  L 208 8  C 208 3.52  204.48 0  200 0  L 16 0  C 11.52 0  8 3.52  8 8  L 8 43  Z M 216 43  C 216 43  208 42.9990228709274  208 42.9990228709274  C 208 42.9990228709274  208 35  208 35  C 208.00390625 39.4090506580354  211.591796875 42.996946471648  216 43  Z M 0 43  C 4.40772427279394 42.9969464716475  7.99608897580053 39.4090506580354  8 35  C 8 35  8 42.9990228709274  8 42.9990228709274  C 8 42.9990228709274  0 43  0 43  Z " fill-rule="nonzero" fill="#ffffff" stroke="none" />
  </g>
</svg>