<?xml version="1.0" encoding="utf-8"?>
<svg version="1.1" xmlns:xlink="http://www.w3.org/1999/xlink" width="520px" height="48px" xmlns="http://www.w3.org/2000/svg">
  <g transform="matrix(1 0 0 1 -43 -44 )">
    <path d="M 44 68  A 23 23 0 0 1 67 45 L 539 45  A 23 23 0 0 1 562 68 A 23 23 0 0 1 539 91 L 67 91  A 23 23 0 0 1 44 68 Z " fill-rule="nonzero" fill="#ffffff" stroke="none" />
    <path d="M 43.5 68  A 23.5 23.5 0 0 1 67 44.5 L 539 44.5  A 23.5 23.5 0 0 1 562.5 68 A 23.5 23.5 0 0 1 539 91.5 L 67 91.5  A 23.5 23.5 0 0 1 43.5 68 Z " stroke-width="1" stroke="#707070" fill="none" stroke-opacity="0.6" />
  </g>
</svg>