<?xml version="1.0" encoding="utf-8"?>
<svg version="1.1" xmlns:xlink="http://www.w3.org/1999/xlink" width="23px" height="8px" xmlns="http://www.w3.org/2000/svg">
  <defs>
    <mask fill="white" id="clip93">
      <path d="M 0.749553571428567 0.445454545454543  C 0.184821428571424 0.272727272727273  -0.0616071428571452 1.06363636363636  0.503124999999998 1.23636363636364  C 2.94687499999999 1.98181818181819  5.40089285714286 2.72727272727273  7.84464285714285 3.47272727272728  C 11.7258928571429 4.65454545454546  15.596875 5.83636363636364  19.478125 7.01818181818182  C 20.3714285714286 7.2909090909091  21.2544642857143 7.56363636363637  22.1477678571429 7.82727272727273  C 22.7125 8  22.9486607142857 7.20909090909092  22.3941964285714 7.03636363636363  C 19.9504464285714 6.29090909090908  17.4964285714286 5.54545454545455  15.0526785714286 4.8  C 11.1714285714286 3.61818181818181  7.30044642857142 2.43636363636363  3.41919642857142 1.25454545454545  C 2.52589285714285 0.981818181818178  1.64285714285714 0.709090909090905  0.749553571428567 0.445454545454543  Z " fill-rule="evenodd" />
    </mask>
  </defs>
  <g transform="matrix(1 0 0 1 -705 -511 )">
    <path d="M 0.749553571428567 0.445454545454543  C 0.184821428571424 0.272727272727273  -0.0616071428571452 1.06363636363636  0.503124999999998 1.23636363636364  C 2.94687499999999 1.98181818181819  5.40089285714286 2.72727272727273  7.84464285714285 3.47272727272728  C 11.7258928571429 4.65454545454546  15.596875 5.83636363636364  19.478125 7.01818181818182  C 20.3714285714286 7.2909090909091  21.2544642857143 7.56363636363637  22.1477678571429 7.82727272727273  C 22.7125 8  22.9486607142857 7.20909090909092  22.3941964285714 7.03636363636363  C 19.9504464285714 6.29090909090908  17.4964285714286 5.54545454545455  15.0526785714286 4.8  C 11.1714285714286 3.61818181818181  7.30044642857142 2.43636363636363  3.41919642857142 1.25454545454545  C 2.52589285714285 0.981818181818178  1.64285714285714 0.709090909090905  0.749553571428567 0.445454545454543  Z " fill-rule="nonzero" fill="#c1c1c1" stroke="none" fill-opacity="0.996078431372549" transform="matrix(1 0 0 1 705 511 )" />
    <path d="M 0.749553571428567 0.445454545454543  C 0.184821428571424 0.272727272727273  -0.0616071428571452 1.06363636363636  0.503124999999998 1.23636363636364  C 2.94687499999999 1.98181818181819  5.40089285714286 2.72727272727273  7.84464285714285 3.47272727272728  C 11.7258928571429 4.65454545454546  15.596875 5.83636363636364  19.478125 7.01818181818182  C 20.3714285714286 7.2909090909091  21.2544642857143 7.56363636363637  22.1477678571429 7.82727272727273  C 22.7125 8  22.9486607142857 7.20909090909092  22.3941964285714 7.03636363636363  C 19.9504464285714 6.29090909090908  17.4964285714286 5.54545454545455  15.0526785714286 4.8  C 11.1714285714286 3.61818181818181  7.30044642857142 2.43636363636363  3.41919642857142 1.25454545454545  C 2.52589285714285 0.981818181818178  1.64285714285714 0.709090909090905  0.749553571428567 0.445454545454543  Z " stroke-width="8" stroke="#c1c1c1" fill="none" stroke-opacity="0.996078431372549" transform="matrix(1 0 0 1 705 511 )" mask="url(#clip93)" />
  </g>
</svg>