<?xml version="1.0" encoding="utf-8"?>
<svg version="1.1" xmlns:xlink="http://www.w3.org/1999/xlink" width="158px" height="107px" xmlns="http://www.w3.org/2000/svg">
  <g transform="matrix(1 0 0 1 -667 -383 )">
    <path d="M 156.246495327103 106.03926056338  C 156.874065420561 106.905809859155  158.313785046729 106.058098591549  157.704672897196 105.172711267606  C 149.250934579439 93.0221830985915  139.560514018692 81.7947183098591  128.965654205607 71.5468309859155  C 118.721495327103 61.6191901408451  107.646728971963 52.5769366197183  96.0366822429907 44.3823943661972  C 85.2018691588785 36.7341549295775  73.8686915887851 29.8205985915493  62.1478971962617 23.6605633802817  C 51.8299065420561 18.2352112676056  41.2165887850467 13.356161971831  30.3264018691589 9.21179577464788  C 21.7065420560748 5.93397887323943  12.8836448598131 3.05176056338028  3.87616822429907 1.05492957746478  C 2.97172897196262 0.847711267605628  2.06728971962617 0.659330985915488  1.16285046728972 0.48978873239436  C 0.110747663551406 0.282570422535206  -0.3322429906542 1.92147887323943  0.719859813084116 2.12869718309858  C 9.35817757009346 3.84295774647886  17.8303738317757 6.46144366197182  26.1179906542056 9.45669014084506  C 36.7128504672897 13.2996478873239  47.0677570093458 17.8584507042253  57.1273364485981 22.9635563380282  C 68.7373831775701 28.8598591549296  79.9967289719626 35.4908450704225  90.7946261682243 42.818838028169  C 102.404672897196 50.6931338028169  113.479439252336 59.4151408450704  123.797429906542 68.9848591549296  C 134.484579439252 78.9125  144.396495327103 89.7632042253521  153.053271028037 101.574647887324  C 154.142289719626 103.044014084507  155.194392523365 104.532218309859  156.246495327103 106.03926056338  Z " fill-rule="nonzero" fill="#c1c1c1" stroke="none" fill-opacity="0.996078431372549" transform="matrix(1 0 0 1 667 383 )" />
  </g>
</svg>