<?xml version="1.0" encoding="utf-8"?>
<svg version="1.1" xmlns:xlink="http://www.w3.org/1999/xlink" width="317px" height="215px" xmlns="http://www.w3.org/2000/svg">
  <g transform="matrix(1 0 0 1 -775 -588 )">
    <path d="M 313.481892523364 213.069542253521  C 314.741004672897 214.81073943662  317.629556074766 213.107394366197  316.407476635514 211.328345070423  C 299.446495327103 186.913732394366  280.004322429907 164.353873239437  258.747546728972 143.762323943662  C 238.194392523364 123.81426056338  215.97476635514 105.645246478873  192.681191588785 89.1795774647887  C 170.942990654206 73.8116197183098  148.204906542056 59.9198943661972  124.689135514019 47.5422535211267  C 103.98785046729 36.6408450704225  82.6940420560748 26.8371478873239  60.8447429906542 18.5096830985915  C 43.5504672897196 11.9234154929577  25.848831775701 6.13204225352112  7.77686915887852 2.11971830985914  C 5.9622663551402 1.70334507042252  4.14766355140188 1.32482394366196  2.33306074766356 0.984154929577452  C 0.222196261682251 0.567781690140834  -0.666588785046717 3.86091549295773  1.44427570093459 4.27728873239435  C 18.7755841121495 7.72183098591547  35.7735981308411 12.9832746478873  52.401285046729 19.0017605633803  C 73.6580607476635 26.7235915492958  94.4334112149533 35.8838028169014  114.616238317757 46.1417253521127  C 137.909813084112 57.9894366197183  160.49976635514 71.3133802816901  182.163901869159 86.037852112676  C 205.457476635514 101.860035211268  227.677102803738 119.385563380282  248.378387850467 138.614436619718  C 269.820327102804 158.5625  289.706892523365 180.365316901408  307.07523364486 204.098591549296  C 309.260163551402 207.051056338028  311.371028037383 210.041373239437  313.481892523364 213.069542253521  Z " fill-rule="nonzero" fill="#c1c1c1" stroke="none" fill-opacity="0.996078431372549" transform="matrix(1 0 0 1 775 588 )" />
  </g>
</svg>