<?xml version="1.0" encoding="utf-8"?>
<svg version="1.1" xmlns:xlink="http://www.w3.org/1999/xlink" width="45px" height="18px" xmlns="http://www.w3.org/2000/svg">
  <defs>
    <mask fill="white" id="clip94">
      <path d="M 1.46651785714285 1.00227272727272  C 0.361607142857134 0.613636363636364  -0.120535714285719 2.3931818181818  0.984374999999995 2.78181818181819  C 5.76562499999999 4.45909090909092  10.5669642857143 6.13636363636364  15.3482142857143 7.81363636363637  C 22.9419642857143 10.4727272727273  30.515625 13.1318181818182  38.109375 15.7909090909091  C 39.8571428571428 16.4045454545455  41.5848214285714 17.0181818181818  43.3325892857143 17.6113636363636  C 44.4375 18  44.8995535714285 16.2204545454546  43.8147321428571 15.8318181818182  C 39.0334821428571 14.1545454545454  34.2321428571428 12.4772727272727  29.4508928571428 10.8  C 21.8571428571428 8.14090909090908  14.2834821428571 5.48181818181817  6.68973214285713 2.82272727272726  C 4.94196428571427 2.2090909090909  3.21428571428571 1.59545454545454  1.46651785714285 1.00227272727272  Z " fill-rule="evenodd" />
    </mask>
  </defs>
  <g transform="matrix(1 0 0 1 -1079 -679 )">
    <path d="M 1.46651785714285 1.00227272727272  C 0.361607142857134 0.613636363636364  -0.120535714285719 2.3931818181818  0.984374999999995 2.78181818181819  C 5.76562499999999 4.45909090909092  10.5669642857143 6.13636363636364  15.3482142857143 7.81363636363637  C 22.9419642857143 10.4727272727273  30.515625 13.1318181818182  38.109375 15.7909090909091  C 39.8571428571428 16.4045454545455  41.5848214285714 17.0181818181818  43.3325892857143 17.6113636363636  C 44.4375 18  44.8995535714285 16.2204545454546  43.8147321428571 15.8318181818182  C 39.0334821428571 14.1545454545454  34.2321428571428 12.4772727272727  29.4508928571428 10.8  C 21.8571428571428 8.14090909090908  14.2834821428571 5.48181818181817  6.68973214285713 2.82272727272726  C 4.94196428571427 2.2090909090909  3.21428571428571 1.59545454545454  1.46651785714285 1.00227272727272  Z " fill-rule="nonzero" fill="#c1c1c1" stroke="none" fill-opacity="0.996078431372549" transform="matrix(1 0 0 1 1079 679 )" />
    <path d="M 1.46651785714285 1.00227272727272  C 0.361607142857134 0.613636363636364  -0.120535714285719 2.3931818181818  0.984374999999995 2.78181818181819  C 5.76562499999999 4.45909090909092  10.5669642857143 6.13636363636364  15.3482142857143 7.81363636363637  C 22.9419642857143 10.4727272727273  30.515625 13.1318181818182  38.109375 15.7909090909091  C 39.8571428571428 16.4045454545455  41.5848214285714 17.0181818181818  43.3325892857143 17.6113636363636  C 44.4375 18  44.8995535714285 16.2204545454546  43.8147321428571 15.8318181818182  C 39.0334821428571 14.1545454545454  34.2321428571428 12.4772727272727  29.4508928571428 10.8  C 21.8571428571428 8.14090909090908  14.2834821428571 5.48181818181817  6.68973214285713 2.82272727272726  C 4.94196428571427 2.2090909090909  3.21428571428571 1.59545454545454  1.46651785714285 1.00227272727272  Z " stroke-width="8" stroke="#c1c1c1" fill="none" stroke-opacity="0.996078431372549" transform="matrix(1 0 0 1 1079 679 )" mask="url(#clip94)" />
  </g>
</svg>