<?xml version="1.0" encoding="utf-8"?>
<svg version="1.1" xmlns:xlink="http://www.w3.org/1999/xlink" width="18px" height="16px" xmlns="http://www.w3.org/2000/svg">
  <g transform="matrix(1 0 0 1 -256 -31 )">
    <path d="M 6.56443266032904 16  C 6.56443266032904 16  6.67059566273251 16  6.67059566273251 16  C 6.15709937263078 16  5.60242724897019 15.6325990521436  5.60242724897019 14.7958837528783  C 5.60242724897019 14.7958837528783  5.60242724897019 7.69224181545171  5.60242724897019 7.69224181545171  C 5.60242724897019 7.69224181545171  0.408962163085479 1.80332860787935  0.408962163085479 1.80332860787935  C 0.257286017251322 1.65041272620548  0.142459839193597 1.46777273761142  0.0666236736247437 1.26814972488893  C -0.0222091627737336 1.04926250016093  -0.0222091627737336 0.805350873302997  0.0666236736247437 0.586463648574997  C 0.170642816619269 0.371978582392415  0.354785844000524 0.20207967659012  0.580135222512311 0.115005438325196  C 0.78379423696852 0.0343017414561551  1.00262048453851 -0.00391387752824901  1.22145054680495 0.000320434417517463  C 1.22145054680495 0.000320434417517463  13.7381906004608 0.000320434417517463  13.7381906004608 0.000320434417517463  C 13.9570321068166 -0.00391387752824901  14.1758736131724 0.0343017414561551  14.3795249982357 0.115005438325196  C 14.6048591179616 0.20207967659012  14.7890250335216 0.371978582392415  14.8930212883374 0.586463648574997  C 14.9818579394324 0.805350873302997  14.9818579394324 1.04926250016093  14.8930289177303 1.26814972488893  C 14.8171927521615 1.46777273761142  14.7023627594073 1.65041272620548  14.5506827988767 1.80332860787935  C 14.5506827988767 1.80332860787935  9.68224510993001 7.70284666879336  9.68224510993001 7.70284666879336  C 9.68224510993001 7.70284666879336  9.68224510993001 11.967172638334  9.68224510993001 11.967172638334  C 9.63890252878347 12.8591018394938  9.33339874831332 13.6958323975409  8.64657790998291 14.2819603529165  C 8.64657790998291 14.2819603529165  7.44192728637541 15.6538469057813  7.44192728637541 15.6538469057813  C 7.19925918594801 15.8661957425138  6.8894219103025 15.98727417599  6.56443266032904 16  Z M 12.3905270066734 8.5714299338198  C 12.3905270066734 8.5714299338198  17.0120165057677 8.5714299338198  17.0120165057677 8.5714299338198  C 17.5580216390776 8.5714299338198  18 8.88149600911331  18 9.26375901042988  C 18 9.64601438235551  17.5580063802918 9.95604231069457  17.0120165057677 9.95604231069457  C 17.0120165057677 9.95604231069457  12.3905422654592 9.95604231069457  12.3905422654592 9.95604231069457  C 11.8445447615423 9.95604231069457  11.4025435124411 9.64598386479196  11.4025435124411 9.26375901042988  C 11.4025435124411 8.88151126789509  11.8445447615423 8.5714299338198  12.3905422654592 8.5714299338198  Z M 18 11.9777927504574  C 18 11.5955526373135  17.5580063802918 11.2854789326291  17.0120165057677 11.2854789326291  C 17.0120165057677 11.2854789326291  12.3905422654592 11.2854789326291  12.3905422654592 11.2854789326291  C 11.8445447615423 11.2854789326291  11.4025435124411 11.5955373785317  11.4025435124411 11.9777927504574  C 11.4025435124411 12.3600481223831  11.8445447615423 12.6700989388948  12.3905422654592 12.6700989388948  C 12.3905422654592 12.6700989388948  17.0120165057677 12.6700989388948  17.0120165057677 12.6700989388948  C 17.5580216390776 12.6700989388948  18 12.3600328636013  18 11.9777927504574  Z M 17.8678360265444 14.3350532841428  C 17.6901703537474 14.1205605885693  17.3651963625598 13.9888925605332  17.0120165057677 13.9888925605332  C 17.0120165057677 13.9888925605332  12.3905422654592 13.9888925605332  12.3905422654592 13.9888925605332  C 12.0373852968459 13.9888925605332  11.7123807880866 14.1205605885693  11.5347074858967 14.3350532841428  C 11.3592161900804 14.5495230915437  11.3592161900804 14.8128820357885  11.5347074858967 15.0273671019711  C 11.7102292992848 15.2418521681537  12.0373852968459 15.3735201961898  12.3905422654592 15.3735201961898  C 12.3905422654592 15.3735201961898  17.0120165057677 15.3735201961898  17.0120165057677 15.3735201961898  C 17.3651963625598 15.3735201961898  17.6901703537474 15.2418521681537  17.8678360265444 15.0273671019711  C 18.0433349517536 14.8128820357885  18.0433349517536 14.5495230915437  17.8678360265444 14.3350532841428  Z " fill-rule="nonzero" fill="#414141" stroke="none" transform="matrix(1 0 0 1 256 31 )" />
  </g>
</svg>