<?xml version="1.0" encoding="utf-8"?>
<svg version="1.1" xmlns:xlink="http://www.w3.org/1999/xlink" width="18px" height="18px" xmlns="http://www.w3.org/2000/svg">
  <g transform="matrix(1 0 0 1 -651 -388 )">
    <path d="M 16.3461549546983 0  C 16.3461549546983 0  0.653845045301649 0  0.653845045301649 0  C 0.292732238769531 0  0 0.308067116093615  0 0.688063066076827  C 0 0.688063066076827  0 13.0732285859821  0 13.0732285859821  C 0 13.4532397012265  0.292732238769531 13.7613068173201  0.653845045301649 13.7613068173201  C 0.653845045301649 13.7613068173201  6.53846486409508 13.7613068173201  6.53846486409508 13.7613068173201  L 6.53846486409508 12.3851655199053  L 1.30769729614258 12.3851655199053  L 1.30769729614258 1.37614129741483  L 15.6923027038574 1.37614129741483  L 15.6923027038574 12.3851655199053  C 15.6923027038574 12.3851655199053  10.4615495469835 12.3851655199053  10.4615495469835 12.3851655199053  C 10.2810796101888 12.3851655199053  10.1176147460937 12.4622202120817  9.99861526489254 12.5867725023484  C 9.99861526489254 12.5867725023484  6.73003853691947 16.0270726674714  6.73003853691947 16.0270726674714  L 7.65457407633466 17  L 10.7322328355577 13.7613068173201  C 10.7322328355577 13.7613068173201  16.3461549546983 13.7613068173201  16.3461549546983 13.7613068173201  C 16.7072605556912 13.7613068173201  17 13.4532397012265  17 13.0732285859821  C 17 13.0732285859821  17 0.688063066076827  17 0.688063066076827  C 17 0.308067116093615  16.7072605556912 0  16.3461549546983 0  Z " fill-rule="nonzero" fill="#bdbdbd" stroke="none" transform="matrix(1 0 0 1 651 388 )" />
  </g>
</svg>