<?xml version="1.0" encoding="utf-8"?>
<svg version="1.1" xmlns:xlink="http://www.w3.org/1999/xlink" width="532px" height="244px" xmlns="http://www.w3.org/2000/svg">
  <defs>
    <filter x="-6px" y="21px" width="532px" height="244px" filterUnits="userSpaceOnUse" id="filter90">
      <feOffset dx="0" dy="3" in="SourceAlpha" result="shadowOffsetInner" />
      <feGaussianBlur stdDeviation="3" in="shadowOffsetInner" result="shadowGaussian" />
      <feComposite in2="shadowGaussian" operator="atop" in="SourceAlpha" result="shadowComposite" />
      <feColorMatrix type="matrix" values="0 0 0 0 0  0 0 0 0 0  0 0 0 0 0  0 0 0 0.16078431372549 0  " in="shadowComposite" />
    </filter>
    <g id="widget91">
      <path d="M 3 32  A 5 5 0 0 1 8 27 L 512 27  A 5 5 0 0 1 517 32 L 517 248  A 5 5 0 0 1 512 253 L 8 253  A 5 5 0 0 1 3 248 L 3 32  Z " fill-rule="nonzero" fill="#e3f2fd" stroke="none" />
      <path d="M 1.5 32  A 6.5 6.5 0 0 1 8 25.5 L 512 25.5  A 6.5 6.5 0 0 1 518.5 32 L 518.5 248  A 6.5 6.5 0 0 1 512 254.5 L 8 254.5  A 6.5 6.5 0 0 1 1.5 248 L 1.5 32  Z " stroke-width="3" stroke="#23a2f6" fill="none" stroke-opacity="0.529411764705882" />
    </g>
  </defs>
  <g transform="matrix(1 0 0 1 6 -21 )">
    <use xlink:href="#widget91" filter="url(#filter90)" />
    <use xlink:href="#widget91" />
  </g>
</svg>