<?xml version="1.0" encoding="utf-8"?>
<svg version="1.1" xmlns:xlink="http://www.w3.org/1999/xlink" width="20px" height="20px" xmlns="http://www.w3.org/2000/svg">
  <g transform="matrix(1 0 0 1 -262 0 )">
    <path d="M 272 1  C 277.04 1  281 4.96  281 10  C 281 15.04  277.04 19  272 19  C 266.96 19  263 15.04  263 10  C 263 4.96  266.96 1  272 1  Z " fill-rule="nonzero" fill="#ffffff" stroke="none" />
    <path d="M 272 1  C 277.04 1  281 4.96  281 10  C 281 15.04  277.04 19  272 19  C 266.96 19  263 15.04  263 10  C 263 4.96  266.96 1  272 1  Z " stroke-width="2" stroke="#039be5" fill="none" />
  </g>
</svg>