<?xml version="1.0" encoding="utf-8"?>
<svg version="1.1" xmlns:xlink="http://www.w3.org/1999/xlink" width="10px" height="3px" xmlns="http://www.w3.org/2000/svg">
  <g transform="matrix(1 0 0 1 -413 -285 )">
    <path d="M 5.29407025570191 1.00002578183417  C 5.30161860521482 0.645963853868564  5.15206460649012 0.314770412767164  4.90342767507808 0.134967901616521  C 4.65480313832859 -0.0448603913681939  4.34626280265358 -0.0449893005388403  4.09755150326597 0.134632737772965  C 3.84885259854103 0.314228994250699  3.69911267987754 0.645293526181453  3.7064627147892 0.999355454147008  C 3.717431991175 1.527573671591  4.06944040852808 1.94887462294068  4.49999380266875 1.94902931394539  C 4.93057198613448 1.94920978678428  5.28281590207663 1.52824399927816  5.29407025570191 1.00002578183417  Z M 0.00027268257679972 1.00002578183417  C -0.00727566693611273 1.3540619279656  0.142278331788591 1.68522958723284  0.390915263200706 1.86505788021765  C 0.63951501062498 2.04486039136824  0.948055346299964 2.04496351870472  1.19677904035014 1.86539304406115  C 1.44549033973768 1.68577100574935  1.59523025840117 1.35468069198448  1.58788022348952 1.00064454585304  C 1.57691094710369 0.472400546574883  1.22490252975061 0.051125377059324  0.794324346284814 0.0509449042205343  C 0.363770952144231 0.0507644313816485  0.011527036202055 0.471781782556011  0.00027268257679972 1.00002578183417  Z M 8.99972731742315 1.00002578183417  C 9.00723848294839 0.645963853868564  8.85770927354883 0.314796194601284  8.60908473679934 0.134967901616521  C 8.36047259471244 -0.0448088277000026  8.05193225903745 -0.044937736870601  7.80322095964991 0.134632737772965  C 7.55449726559974 0.314254776084771  7.40475734693625 0.645319308015572  7.4121073818479 0.999355454147008  C 7.42307665823373 1.52759945342512  7.77508507558681 1.94890040477484  8.2056632590526 1.94905509577951  C 8.63621665319319 1.94926135045247  8.98846056913536 1.52826978111223  8.99972731742315 1.00002578183417  Z " fill-rule="nonzero" fill="#bdbdbd" stroke="none" transform="matrix(1 0 0 1 413 285 )" />
  </g>
</svg>