<?xml version="1.0" encoding="utf-8"?>
<svg version="1.1" xmlns:xlink="http://www.w3.org/1999/xlink" width="16px" height="14px" xmlns="http://www.w3.org/2000/svg">
  <g transform="matrix(1 0 0 1 -410 -281 )">
    <path d="M 14.4230779012044 0  C 14.4230779012044 0  0.576922098795573 0  0.576922098795573 0  C 0.258293151855469 0  0 0.235580735836293  0 0.52616587405875  C 0 0.52616587405875  0 9.99717480104515  0 9.99717480104515  C 0 10.287771536232  0.258293151855469 10.5233522720683  0.576922098795573 10.5233522720683  C 0.576922098795573 10.5233522720683  5.76923370361331 10.5233522720683  5.76923370361331 10.5233522720683  L 5.76923370361331 9.4710089269864  L 1.15385055541992 9.4710089269864  L 1.15385055541992 1  L 13.8461494445801 1  L 13.8461494445801 9.4710089269864  C 13.8461494445801 9.4710089269864  9.23077901204431 9.4710089269864  9.23077901204431 9.4710089269864  C 9.07154083251956 9.4710089269864  8.92730712890623 9.52993310335663  8.82230758666989 9.62517897238408  C 8.82230758666989 9.62517897238408  5.93826929728189 12.2559967457134  5.93826929728189 12.2559967457134  L 6.75403594970706 13  L 9.46961720784505 10.5233522720683  C 9.46961720784505 10.5233522720683  14.4230779012044 10.5233522720683  14.4230779012044 10.5233522720683  C 14.7417004903157 10.5233522720683  15 10.287771536232  15 9.99717480104515  C 15 9.99717480104515  15 0.52616587405875  15 0.52616587405875  C 15 0.235580735836293  14.7417004903157 0  14.4230779012044 0  Z " fill-rule="nonzero" fill="#bdbdbd" stroke="none" transform="matrix(1 0 0 1 410 281 )" />
  </g>
</svg>