<?xml version="1.0" encoding="utf-8"?>
<svg version="1.1" xmlns:xlink="http://www.w3.org/1999/xlink" width="21px" height="20px" xmlns="http://www.w3.org/2000/svg">
  <g>
    <path d="M 19.2307626772083 0  C 19.2307626772083 0  0.769221832556756 0  0.769221832556756 0  C 0.344386648656687 0  0 0.344289954592272  0 0.76901901491973  C 0 0.76901901491973  0 14.6112523506556  0 14.6112523506556  C 0 15.0359658491518  0.344386648656687 15.3802713655753  0.769221832556756 15.3802713655753  C 0.769221832556756 15.3802713655753  7.69230352185978 15.3802713655753  7.69230352185978 15.3802713655753  L 7.69230352185978 13.8422333357359  L 1.53845915534847 13.8422333357359  L 1.53845915534847 1.53802246800818  L 18.461533099534 1.53802246800818  L 18.461533099534 13.8422333357359  C 18.461533099534 13.8422333357359  12.3076809879053 13.8422333357359  12.3076809879053 13.8422333357359  C 12.0953873178348 13.8422333357359  11.9030760508576 13.9283680717089  11.7630753073263 14.0675530904158  C 11.7630753073263 14.0675530904158  7.91768644046791 17.9126170413519  7.91768644046791 17.9126170413519  L 9.00537975860014 19  L 12.6261447283632 15.3802713655753  C 12.6261447283632 15.3802713655753  19.2307626772083 15.3802713655753  19.2307626772083 15.3802713655753  C 19.6555978611083 15.3802713655753  20 15.0359658491518  20 14.6112523506556  C 20 14.6112523506556  20 0.76901901491973  20 0.76901901491973  C 20 0.344289954592272  19.6555978611083 0  19.2307626772083 0  Z " fill-rule="nonzero" fill="#039be5" stroke="none" />
  </g>
</svg>