<?xml version="1.0" encoding="utf-8"?>
<svg version="1.1" xmlns:xlink="http://www.w3.org/1999/xlink" width="221px" height="150px" xmlns="http://www.w3.org/2000/svg">
  <g transform="matrix(1 0 0 1 -577 -314 )">
    <path d="M 218.547313084112 148.653169014084  C 219.42511682243 149.867957746479  221.438901869159 148.679577464789  220.58691588785 147.43838028169  C 208.76238317757 130.404929577465  195.208060747664 114.665492957746  180.388668224299 100.299295774648  C 166.059813084112 86.3820422535211  150.569158878505 73.7059859154929  134.329789719626 62.2183098591549  C 119.17476635514 51.4964788732394  103.322663551402 41.8045774647887  86.9283878504673 33.169014084507  C 72.496261682243 25.5633802816901  57.6510514018692 18.7235915492958  42.4185747663552 12.9137323943662  C 30.3616822429907 8.31866197183098  18.0207943925234 4.2781690140845  5.42172897196262 1.47887323943661  C 4.15665887850468 1.18838028169013  2.89158878504674 0.92429577464788  1.62651869158879 0.68661971830985  C 0.154906542056081 0.396126760563373  -0.464719626168216 2.69366197183098  1.00689252336449 2.98415492957745  C 13.0896028037383 5.38732394366196  24.939953271028 9.05809859154928  36.5321261682243 13.2570422535211  C 51.3515186915888 18.6443661971831  65.8352803738318 25.0352112676056  79.9059579439252 32.1919014084507  C 96.1453271028037 40.4577464788732  111.894158878505 49.7535211267606  126.997546728972 60.0264084507042  C 143.23691588785 71.0651408450704  158.727570093458 83.2922535211268  173.159696261682 96.7077464788732  C 188.108177570093 110.625  201.972313084112 125.836267605634  214.080841121495 142.394366197183  C 215.604088785047 144.454225352113  217.075700934579 146.540492957746  218.547313084112 148.653169014084  Z " fill-rule="nonzero" fill="#c1c1c1" stroke="none" fill-opacity="0.996078431372549" transform="matrix(1 0 0 1 577 314 )" />
  </g>
</svg>