<?xml version="1.0" encoding="utf-8"?>
<svg version="1.1" xmlns:xlink="http://www.w3.org/1999/xlink" width="31px" height="13px" xmlns="http://www.w3.org/2000/svg">
  <defs>
    <mask fill="white" id="clip92">
      <path d="M 1.01026785714285 0.723863636363633  C 0.249107142857137 0.443181818181818  -0.0830357142857174 1.72840909090908  0.678124999999997 2.00909090909091  C 3.97187499999999 3.22045454545456  7.27946428571429 4.43181818181818  10.5732142857143 5.64318181818182  C 15.8044642857143 7.56363636363637  21.021875 9.48409090909092  26.253125 11.4045454545455  C 27.4571428571429 11.8477272727273  28.6473214285714 12.2909090909091  29.8513392857143 12.7193181818182  C 30.6125 13  30.9308035714286 11.7147727272727  30.1834821428571 11.4340909090909  C 26.8897321428571 10.2227272727273  23.5821428571428 9.01136363636364  20.2883928571428 7.79999999999999  C 15.0571428571428 5.87954545454545  9.83973214285713 3.9590909090909  4.60848214285714 2.03863636363636  C 3.40446428571427 1.59545454545454  2.21428571428571 1.15227272727272  1.01026785714285 0.723863636363633  Z " fill-rule="evenodd" />
    </mask>
  </defs>
  <g transform="matrix(1 0 0 1 -758 -462 )">
    <path d="M 1.01026785714285 0.723863636363633  C 0.249107142857137 0.443181818181818  -0.0830357142857174 1.72840909090908  0.678124999999997 2.00909090909091  C 3.97187499999999 3.22045454545456  7.27946428571429 4.43181818181818  10.5732142857143 5.64318181818182  C 15.8044642857143 7.56363636363637  21.021875 9.48409090909092  26.253125 11.4045454545455  C 27.4571428571429 11.8477272727273  28.6473214285714 12.2909090909091  29.8513392857143 12.7193181818182  C 30.6125 13  30.9308035714286 11.7147727272727  30.1834821428571 11.4340909090909  C 26.8897321428571 10.2227272727273  23.5821428571428 9.01136363636364  20.2883928571428 7.79999999999999  C 15.0571428571428 5.87954545454545  9.83973214285713 3.9590909090909  4.60848214285714 2.03863636363636  C 3.40446428571427 1.59545454545454  2.21428571428571 1.15227272727272  1.01026785714285 0.723863636363633  Z " fill-rule="nonzero" fill="#c1c1c1" stroke="none" fill-opacity="0.996078431372549" transform="matrix(1 0 0 1 758 462 )" />
    <path d="M 1.01026785714285 0.723863636363633  C 0.249107142857137 0.443181818181818  -0.0830357142857174 1.72840909090908  0.678124999999997 2.00909090909091  C 3.97187499999999 3.22045454545456  7.27946428571429 4.43181818181818  10.5732142857143 5.64318181818182  C 15.8044642857143 7.56363636363637  21.021875 9.48409090909092  26.253125 11.4045454545455  C 27.4571428571429 11.8477272727273  28.6473214285714 12.2909090909091  29.8513392857143 12.7193181818182  C 30.6125 13  30.9308035714286 11.7147727272727  30.1834821428571 11.4340909090909  C 26.8897321428571 10.2227272727273  23.5821428571428 9.01136363636364  20.2883928571428 7.79999999999999  C 15.0571428571428 5.87954545454545  9.83973214285713 3.9590909090909  4.60848214285714 2.03863636363636  C 3.40446428571427 1.59545454545454  2.21428571428571 1.15227272727272  1.01026785714285 0.723863636363633  Z " stroke-width="8" stroke="#c1c1c1" fill="none" stroke-opacity="0.996078431372549" transform="matrix(1 0 0 1 758 462 )" mask="url(#clip92)" />
  </g>
</svg>