<?xml version="1.0" encoding="utf-8"?>
<svg version="1.1" xmlns:xlink="http://www.w3.org/1999/xlink" width="18px" height="18px" xmlns="http://www.w3.org/2000/svg">
  <g>
    <path d="M 7.2655441561992 8.68156433105469  C 7.2655441561992 8.68156433105469  0.0617599749077585 8.68156433105469  0.0617599749077585 8.68156433105469  C 0.0277023432847524 8.68148803710938  9.9182170945134E-05 8.6539306640625  0 8.61989593505859  C 0 8.61989593505859  0 1.36399841308594  0 1.36399841308594  C 5.34057843550722E-05 1.32991027832031  0.0276641962959274 1.30227661132813  0.0617599749077585 1.30219268798828  C 0.0617599749077585 1.30219268798828  7.26558993258579 1.30219268798828  7.26558993258579 1.30219268798828  C 7.29966282300433 1.30230712890625  7.32725835472037 1.32992553710938  7.32732701930026 1.36399841308594  C 7.32732701930026 1.36399841308594  7.32732701930026 8.61988067626953  7.32732701930026 8.61988067626953  C 7.32723546652708 8.6539306640625  7.29961704661774 8.6815185546875  7.26553652680144 8.68156433105469  Z M 17.9720687747823 5.19065093994141  C 17.9720687747823 5.19065093994141  12.9722421316537 9.94843292236328  12.9722421316537 9.94843292236328  C 12.9366662498755 9.98230743408203  12.8803460355742 9.98092651367188  12.8464791388953 9.94536590576172  C 12.8462197393713 9.94515228271484  12.8460976690071 9.94486236572266  12.8458840458696 9.94479370117188  C 12.8458840458696 9.94479370117188  8.12164650880877 4.90972900390625  8.12164650880877 4.90972900390625  C 8.08781775911872 4.87345123291016  8.08941993264937 4.81671905517578  8.12526284334939 4.78242492675781  C 8.12526284334939 4.78242492675781  13.1249445279204 0.0245742797851563  13.1249445279204 0.0245742797851563  C 13.1606043330741 -0.00936126708984375  13.2170161001486 -0.0079803466796875  13.2509440320096 0.0276565551757813  C 13.2512797255112 0.0280532836914063  17.9756927387207 5.06330108642578  17.9756927387207 5.06330108642578  C 18.0094757120241 5.09963989257813  18.0078430209024 5.15632629394531  17.972045886589 5.19064331054688  Z M 7.2655441561992 17.9999771118164  C 7.2655441561992 17.9999771118164  0.0617599749077585 17.9999771118164  0.0617599749077585 17.9999771118164  C 0.0277099726825174 17.9998779296875  0.000129699762005175 17.9723281860352  0 17.9382781982422  C 0 17.9382781982422  0 10.6824493408203  0 10.6824493408203  C 7.62939776501031E-05 10.6483688354492  0.0276718256936924 10.6207580566406  0.0617599749077585 10.6206588745117  C 0.0617599749077585 10.6206588745117  7.26558993258579 10.6206588745117  7.26558993258579 10.6206588745117  C 7.2996246760155 10.6208572387695  7.32715917254943 10.6484222412109  7.32732701930026 10.6824493408203  C 7.32732701930026 10.6824493408203  7.32732701930026 17.9383087158203  7.32732701930026 17.9383087158203  C 7.32721257833378 17.9723510742188  7.29960178782221 17.9999160766602  7.26553652680144 18  Z M 16.6505731585071 17.9999771118164  C 16.6505731585071 17.9999771118164  9.44674320082906 17.9999771118164  9.44674320082906 17.9999771118164  C 9.41270082800158 17.9999008178711  9.38512818447884 17.9723281860352  9.38507477869448 17.9382781982422  C 9.38507477869448 17.9382781982422  9.38507477869448 10.6824493408203  9.38507477869448 10.6824493408203  C 9.38507477869448 10.6483764648438  9.412655051615 10.620735168457  9.44674320082906 10.6206588745117  C 9.44674320082906 10.6206588745117  16.6505731585071 10.6206588745117  16.6505731585071 10.6206588745117  C 16.6846460489256 10.6207427978516  16.7122415806417 10.6483764648438  16.712264468835 10.6824493408203  C 16.712264468835 10.6824493408203  16.7122568394372 17.9383087158203  16.7122568394372 17.9383087158203  C 16.7121729160618 17.9723434448242  16.6846079019368 17.9999008178711  16.6505731585071 18  Z " fill-rule="nonzero" fill="#414141" stroke="none" />
  </g>
</svg>