<?xml version="1.0" encoding="utf-8"?>
<svg version="1.1" xmlns:xlink="http://www.w3.org/1999/xlink" width="20px" height="20px" xmlns="http://www.w3.org/2000/svg">
  <g transform="matrix(1 0 0 1 -12 -29 )">
    <path d="M 0 20  L 0 16.2503128051758  L 3.74978542327881 16.2503128051758  L 3.74978542327881 20  L 0 20  Z M 12.5005083084106 7.49951171875  L 15.0009956359863 7.49951171875  L 15.0009956359863 14.9991216659546  L 7.49951171875 14.9991216659546  L 7.49951171875 12.500527381897  L 4.99900436401367 12.500527381897  L 4.99900436401367 4.99900436401367  L 12.498574256897 4.99900436401367  L 12.498574256897 7.49949216842651  L 12.5005083084106 7.49949216842651  Z M 16.2503128051758 20  L 16.2503128051758 18.7508010864258  L 3.74978542327881 18.7508010864258  L 3.74978542327881 17.5015048980713  L 16.2502918243408 17.5015048980713  L 16.2502918243408 16.2522087097168  L 20 16.2522087097168  L 20 20  L 16.2503128051758 20  Z M 16.2503128051758 2.50048851966858  L 3.74978542327881 2.50048851966858  L 3.74978542327881 1.24929690361023  L 16.2502918243408 1.24929690361023  L 16.2502918243408 0  L 20 0  L 20 3.74978542327881  L 18.7508010864258 3.74978542327881  L 18.7508010864258 16.2503128051758  L 17.5015048980713 16.2503128051758  L 17.5015048980713 3.74978542327881  L 16.2522087097168 3.74978542327881  L 16.2522087097168 2.50048804283142  L 16.2503128051758 2.50048804283142  Z M 2.50048756599426 3.74978566169739  L 3.74978446960449 3.74978566169739  L 3.74978446960449 0  L 0 0  L 0 3.74978542327881  L 1.24929690361023 3.74978542327881  L 1.24929690361023 16.2503128051758  L 2.49849629402161 16.2503128051758  L 2.49849629402161 3.74978542327881  L 2.50048851966858 3.74978542327881  Z " fill-rule="nonzero" fill="#414141" stroke="none" transform="matrix(1 0 0 1 12 29 )" />
  </g>
</svg>