<?xml version="1.0" encoding="utf-8"?>
<svg version="1.1" xmlns:xlink="http://www.w3.org/1999/xlink" width="17px" height="18px" xmlns="http://www.w3.org/2000/svg">
  <g transform="matrix(1 0 0 1 -1188 -575 )">
    <path d="M 15.3846164279514 0  C 15.3846164279514 0  0.615383572048611 0  0.615383572048611 0  C 0.2755126953125 0  0 0.308067116093615  0 0.688063066076827  C 0 0.688063066076827  0 13.0732285859821  0 13.0732285859821  C 0 13.4532397012265  0.2755126953125 13.7613068173201  0.615383572048611 13.7613068173201  C 0.615383572048611 13.7613068173201  6.15384928385419 13.7613068173201  6.15384928385419 13.7613068173201  L 6.15384928385419 12.3851655199053  L 1.23077392578125 12.3851655199053  L 1.23077392578125 1.37614129741483  L 14.7692260742187 1.37614129741483  L 14.7692260742187 12.3851655199053  C 14.7692260742187 12.3851655199053  9.84616427951393 12.3851655199053  9.84616427951393 12.3851655199053  C 9.67631022135419 12.3851655199053  9.52246093749998 12.4622202120817  9.41046142578121 12.5867725023484  C 9.41046142578121 12.5867725023484  6.33415391710068 16.0270726674714  6.33415391710068 16.0270726674714  L 7.20430501302086 17  L 10.1009250217014 13.7613068173201  C 10.1009250217014 13.7613068173201  15.3846164279514 13.7613068173201  15.3846164279514 13.7613068173201  C 15.7244805230034 13.7613068173201  16 13.4532397012265  16 13.0732285859821  C 16 13.0732285859821  16 0.688063066076827  16 0.688063066076827  C 16 0.308067116093615  15.7244805230034 0  15.3846164279514 0  Z " fill-rule="nonzero" fill="#bdbdbd" stroke="none" transform="matrix(1 0 0 1 1188 575 )" />
  </g>
</svg>