<?xml version="1.0" encoding="utf-8"?>
<svg version="1.1" xmlns:xlink="http://www.w3.org/1999/xlink" width="11px" height="3px" xmlns="http://www.w3.org/2000/svg">
  <g transform="matrix(1 0 0 1 -1191 -581 )">
    <path d="M 5.88230028411324 1.00002578183417  C 5.89068733912758 0.645963853868564  5.72451622943347 0.314770412767164  5.44825297230897 0.134967901616521  C 5.17200348703177 -0.0448603913681939  4.82918089183731 -0.0449893005388403  4.55283500362886 0.134632737772965  C 4.27650288726782 0.314228994250699  4.11012519986393 0.645293526181453  4.11829190532133 0.999355454147008  C 4.13047999019444 1.527573671591  4.52160045392009 1.94887462294068  4.99999311407639 1.94902931394539  C 5.4784133179272 1.94920978678428  5.86979544675182 1.52824399927816  5.88230028411324 1.00002578183417  Z M 0.000302980640888578 1.00002578183417  C -0.00808407437345858 1.3540619279656  0.158087035320657 1.68522958723284  0.434350292445229 1.86505788021765  C 0.710572234027756 2.04486039136824  1.05339482922218 2.04496351870472  1.32975448927793 1.86539304406115  C 1.60610037748631 1.68577100574935  1.77247806489019 1.35468069198448  1.76431135943279 1.00064454585304  C 1.75212327455965 0.472400546574883  1.36100281083401 0.051125377059324  0.882582606983127 0.0509449042205343  C 0.404189946826923 0.0507644313816485  0.0128078180022834 0.471781782556011  0.000302980640888578 1.00002578183417  Z M 9.99969701935906 1.00002578183417  C 10.0080427588315 0.645963853868564  9.84189919283203 0.314796194601284  9.56564970755482 0.134967901616521  C 9.28941399412493 -0.0448088277000026  8.9465913989305 -0.044937736870601  8.67024551072212 0.134632737772965  C 8.39388585066638 0.314254776084771  8.2275081632625 0.645319308015572  8.23567486871989 0.999355454147008  C 8.24786295359303 1.52759945342512  8.63898341731867 1.94890040477484  9.11740362116956 1.94905509577951  C 9.59579628132576 1.94926135045247  9.9871784101504 1.52826978111223  9.99969701935906 1.00002578183417  Z " fill-rule="nonzero" fill="#bdbdbd" stroke="none" transform="matrix(1 0 0 1 1191 581 )" />
  </g>
</svg>