<?xml version="1.0" encoding="utf-8"?>
<svg version="1.1" xmlns:xlink="http://www.w3.org/1999/xlink" width="520px" height="220px" xmlns="http://www.w3.org/2000/svg">
  <g>
    <path d="M 3 8  A 5 5 0 0 1 8 3 L 512 3  A 5 5 0 0 1 517 8 L 517 212  A 5 5 0 0 1 512 217 L 8 217  A 5 5 0 0 1 3 212 L 3 8  Z " fill-rule="nonzero" fill="#e3f2fd" stroke="none" />
    <path d="M 1.5 8  A 6.5 6.5 0 0 1 8 1.5 L 512 1.5  A 6.5 6.5 0 0 1 518.5 8 L 518.5 212  A 6.5 6.5 0 0 1 512 218.5 L 8 218.5  A 6.5 6.5 0 0 1 1.5 212 L 1.5 8  Z " stroke-width="3" stroke="#23a2f6" fill="none" stroke-opacity="0.529411764705882" />
  </g>
</svg>