<?xml version="1.0" encoding="utf-8"?>
<svg version="1.1" xmlns:xlink="http://www.w3.org/1999/xlink" width="15px" height="4px" xmlns="http://www.w3.org/2000/svg">
  <g transform="matrix(1 0 0 1 -300 -199 )">
    <path d="M 1.8750018896962 0  C 0.839463507699406 0  0 0.895410713709808  0 2.00000000000006  C 0 3.10458928629019  0.839463507699406 4  1.8750018896962 4  C 2.91054027169301 4  3.75000377939233 3.10458928629019  3.75000377939233 2.00000000000006  C 3.75000377939233 0.895410713709808  2.91054027169301 0  1.8750018896962 0  Z M 13.1249981103038 0  C 12.0894446107378 0  11.2499962206077 0.895410713709808  11.2499962206077 2.00000000000006  C 11.2499962206077 3.10458928629019  12.0894446107378 4  13.1249981103038 4  C 14.1605213747313 4  15.0000000000001 3.10458928629019  15.0000000000001 2.00000000000006  C 15.0000000000001 0.895410713709808  14.1605213747313 0  13.1249981103038 0  Z M 7.49999244121539 0  C 6.46446917678785 0  5.62499055151916 0.895410713709808  5.62499055151916 2.00000000000006  C 5.62499055151916 3.10458928629019  6.46446917678785 4  7.49999244121539 4  C 8.53553082321209 4  9.3749943309115 3.10458928629019  9.3749943309115 2.00000000000006  C 9.3749943309115 0.895410713709808  8.53553082321209 0  7.49999244121539 0  Z " fill-rule="nonzero" fill="#b4b2b2" stroke="none" transform="matrix(1 0 0 1 300 199 )" />
  </g>
</svg>