<?xml version="1.0" encoding="utf-8"?>
<svg version="1.1" xmlns:xlink="http://www.w3.org/1999/xlink" width="520px" height="48px" xmlns="http://www.w3.org/2000/svg">
  <g transform="matrix(1 0 0 1 -140 -44 )">
    <path d="M 141 68  A 23 23 0 0 1 164 45 L 636 45  A 23 23 0 0 1 659 68 A 23 23 0 0 1 636 91 L 164 91  A 23 23 0 0 1 141 68 Z " fill-rule="nonzero" fill="#ffffff" stroke="none" fill-opacity="0.56078431372549" />
    <path d="M 140.5 68  A 23.5 23.5 0 0 1 164 44.5 L 636 44.5  A 23.5 23.5 0 0 1 659.5 68 A 23.5 23.5 0 0 1 636 91.5 L 164 91.5  A 23.5 23.5 0 0 1 140.5 68 Z " stroke-width="1" stroke="#c1c1c1" fill="none" stroke-opacity="0.996078431372549" />
  </g>
</svg>