<?xml version="1.0" encoding="utf-8"?>
<svg version="1.1" xmlns:xlink="http://www.w3.org/1999/xlink" width="22px" height="22px" xmlns="http://www.w3.org/2000/svg">
  <g transform="matrix(1 0 0 1 -618 -57 )">
    <path d="M 8.5188642590024 17.4558346464073  C 8.5188642590024 17.4558346464073  8.51706087748385 17.4558210934324  8.51706087748385 17.4558210934324  C 6.25431491458856 17.4700710784053  4.08019065259319 16.5553614451708  2.47999090569695 14.9158726000172  C 0.879790391253584 13.2763837548635  -0.013263673942144 11.0486028670398  0.000171312231118308 8.72981375317645  C -0.0142181972218111 6.41039733019198  0.878413706900913 4.18167693079109  2.47871819446025 2.54139402652235  C 4.07902256393542 0.901111485279726  6.25369237481867 -0.0140965459363561  8.51705898813705 0.000164192385225197  C 10.7801204719476 -0.0140945776541565  12.9545205785754 0.900862993906238  14.5547755888655 2.54075147030457  C 16.1550305991556 4.18063819207669  17.0478735473748 6.40889149788047  17.0339585082086 8.72799959068737  C 17.0478697686812 11.0467848322722  16.1552724355457 13.2747535256044  14.5554085200428 14.9145870035468  C 12.9555464938867 16.5544204814892  10.7816121112445 17.469596724286  8.5188642590024 17.4558346464073  Z M 8.51884253151422 2.49328701628132  C 8.51884253151422 2.49328701628132  8.51706087748385 2.49330855583062  8.51706087748385 2.49330855583062  C 6.8989576803312 2.47747117867975  5.3426540722628 3.12930924808841  4.19859790576119 4.30204332050477  C 3.05454197542793 5.4747764248515  2.41891399176288 7.069814900779  2.43484212994215 8.7279879738518  C 2.43484212994215 12.2202255955194  5.11102487821348 14.9626671498556  8.51706087748385 14.9626671498556  C 11.9248974242526 14.9626671498556  14.6010617513926 12.2202033299179  14.6010617513926 8.72981375317645  C 14.6010617513926 5.23757564747398  11.9248775861112 2.49328701628132  8.51884253151422 2.49328701628132  Z M 19.948060558356 21.6300114945996  C 19.948060558356 21.6300114945996  19.9480397755412 21.6281644177431  19.9480397755412 21.6281644177431  C 19.9480397755412 21.6281644177431  16.3255554837423 17.9287889370635  16.3255554837423 17.9287889370635  C 16.0947604363042 17.7038540859495  15.9641083265393 17.3917484368144  15.9641083265393 17.0653560160603  C 15.9641083265393 16.738961659167  16.0947604363042 16.4268579461712  16.3255554837423 16.2019221269876  C 16.8085537671848 15.7069607094027  17.5330540263688 15.7069607094027  18.0160523098114 16.2019221269876  C 18.0160523098114 16.2019221269876  21.6385573844251 19.9031456525933  21.6385573844251 19.9031456525933  C 21.8693505425164 20.128078567568  22.0000007629345 20.4401861528424  22.0000007629345 20.7665785735965  C 22.0000007629345 21.0929729304898  21.8693505425164 21.4050766434856  21.6385573844251 21.6300114945996  C 21.4178608956216 21.8663424614134  21.112516002234 21.9999999631302  20.7933089713906 21.9999999631302  C 20.4741019405472 21.9999999631302  20.1687589365064 21.8663424614134  19.948060558356 21.6300114945996  Z " fill-rule="nonzero" fill="#bdbdbd" stroke="none" transform="matrix(1 0 0 1 618 57 )" />
  </g>
</svg>