<?xml version="1.0" encoding="utf-8"?>
<svg version="1.1" xmlns:xlink="http://www.w3.org/1999/xlink" width="41px" height="164px" xmlns="http://www.w3.org/2000/svg">
  <g transform="matrix(1 0 0 1 -813 -443 )">
    <path d="M 19.648811965812 125.345154830509  L 20.1436153846154 95.1437904237288  L 40.7413846153846 57.7809768644068  L 20.2214102564103 90.4062056779661  L 20.4439316239316 76.8265192372882  L 34.6397435897436 49.7946633050848  L 20.5028034188034 73.2331124576272  L 20.902641025641 48.8092734745763  L 36.1041794871795 27.2887904237288  L 20.9657179487179 44.9688243220339  L 21.2159230769231 0.18466330508476  L 19.6446068376068 59.4706633050848  L 19.7735641025641 57.0249090677966  L 4.31831623931623 33.5687395762712  L 19.525811965812 61.7201039830509  L 18.0855555555556 88.9969175423729  L 18.0428034188034 88.2728158474577  L 0.225675213675216 63.5887311016949  L 17.9888376068376 90.8307988983051  L 17.808717948718 94.2417904237288  L 17.7764786324786 94.2932141525424  L 17.7911965811966 94.573265  L 14.137641025641 163.777442966102  L 19.019094017094 163.777442966102  L 19.6046581196581 128.032044661017  L 37.3243675213675 100.857036186441  L 19.648811965812 125.345154830509  Z " fill-rule="nonzero" fill="#3f3d56" stroke="none" transform="matrix(1 0 0 1 813 443 )" />
  </g>
</svg>