<?xml version="1.0" encoding="utf-8"?>
<svg version="1.1" xmlns:xlink="http://www.w3.org/1999/xlink" width="360px" height="36px" xmlns="http://www.w3.org/2000/svg">
  <g transform="matrix(1 0 0 1 -519 -595 )">
    <path d="M 342.627742196532 10.5049176923076  C 353.760693641619 12.8206765384615  359.989595375723 15.4133653846154  359.989595375723 18.1514561538462  C 359.989595375723 21.6510715384615  349.800041618497 24.9187638461538  332.195393063584 27.6706869230769  C 300.294815028902 32.6622253846154  244.050884393064 35.9749176923077  179.993080924855 35.9749176923077  C 80.5873005780347 35.9749176923077  1.73410404580748E-05 27.9960715384616  1.73410404580748E-05 18.1514561538462  C 1.73410404580748E-05 16.7910715384616  1.54683815028901 15.4583792307692  4.4774739884393 14.1845330769231  C 7.78267630057803 12.7410715384615  12.8531965317919 11.3668407692308  19.4497456647399 10.08261  C 33.0485895953757 7.43453307692307  53.139901734104 5.17068692307689  77.6462774566474 3.48837923076923  C 106.092520231214 1.53955384615383  140.493676300578 0.379917692307686  177.603502890173 0.334917692307687  C 178.397722543353 0.331456153846191  179.194248554913 0.330302307692346  179.993080924855 0.331456153846152  C 184.463601156069 0.331456153846191  188.894815028902 0.347610000000023  193.286722543353 0.379917692307686  C 195.350306358381 0.393777692307717  197.404641618497 0.412239230769239  199.449728323699 0.43530230769229  C 221.306375722543 0.667225384615353  241.990768786127 1.28684076923076  260.788456647399 2.22145615384613  C 261.62776300578 2.26299461538459  262.463601156069 2.30799461538459  263.295971098266 2.34953307692305  C 263.58036416185 2.36337923076919  263.864757225433 2.38068692307691  264.149150289017 2.39453307692305  C 264.225450867052 2.39799461538458  264.301751445087 2.40145615384612  264.378052023121 2.40837923076919  C 268.071693641618 2.60222538461536  271.684410404624 2.80876384615383  275.216202312139 3.02799461538456  C 276.374583815029 3.09722538461535  277.522560693642 3.16991769230767  278.660132947977 3.24607153846148  C 289.713332947977 3.96260999999996  299.916780346821 4.79684076923072  309.093658959538 5.73491769230766  C 310.661289017341 5.89413461538459  312.198867052023 6.0568269230769  313.706393063584 6.22299461538457  C 325.317953757225 7.49337923076917  335.094804624277 8.93684076923073  342.627742196532 10.5049176923076  Z " fill-rule="nonzero" fill="#3f3d56" stroke="none" transform="matrix(1 0 0 1 519 595 )" />
  </g>
</svg>