<?xml version="1.0" encoding="utf-8"?>
<svg version="1.1" xmlns:xlink="http://www.w3.org/1999/xlink" width="30px" height="63px" xmlns="http://www.w3.org/2000/svg">
  <g transform="matrix(1 0 0 1 -765 -434 )">
    <path d="M 29.8873220930232 16.0386415  C 29.8873220930232 16.0386415  31.3298337209302 -1.32899899999998  19.3777325581395 0.325062500000013  C 19.3777325581395 0.325062500000013  11.1348837209302 3.63318550000003  11.1348837209302 10.662946  C 11.1348837209302 17.6927065  11.5470244186046 26.9967985  10.1045302325581 30.098166  C 8.66203604651164 33.1995335  7.42561046511627 34.233318  8.2498918604651 36.7144085  C 9.07417325581393 39.195499  10.5166709302326 38.781988  8.2498918604651 40.6428085  C 5.98311279069765 42.503629  6.1891848837209 39.4022615  5.98311627906974 42.503629  C 5.77704767441857 45.6049965  8.04382325581394 46.0185075  5.98311627906974 47.46581  C 3.92240930232554 48.9131125  -1.43543372093028 54.7023295  0.831345348837174 56.5631465  C 3.09812441860462 58.4239635  9.07417674418602 64.4199465  11.1348837209302 62.1456045  C 13.1955906976743 59.8712625  14.2259302325581 54.082056  17.1109360465116 54.4955705  C 19.9959418604651 54.909085  20.4080686046511 55.115844  19.9959244186046 53.048268  C 19.5837802325581 50.980692  17.7291488372092 50.980692  20.2019965116279 50.3604185  C 22.6748441860465 49.740145  23.7051976744186 51.1874475  22.8809162790697 49.1198715  C 22.0566348837209 47.0522955  21.4384220930232 46.2252665  23.086988372093 43.9509315  C 24.7355546511627 41.6765965  25.5598360465116 41.056323  25.3537639534883 38.7819915  C 25.1476918604651 36.50766  29.8873220930232 16.0386415  29.8873220930232 16.0386415  Z " fill-rule="nonzero" fill="#000000" stroke="none" transform="matrix(1 0 0 1 765 434 )" />
  </g>
</svg>