<svg class="icon" viewBox="0 0 1024 1024" version="1.1" xmlns="http://www.w3.org/2000/svg" p-id="2266" height="128" width="128"><path d="M512 368.63950355L798.71931703 81.92018655c40.9599503-40.9599503 102.40004336-40.9599503 143.35999369 0s40.9599503 102.40004336 0 143.35999366L655.36049645 512l286.719317 286.71931703c40.9599503 40.9599503 40.9599503 102.40004336 0 143.35999369s-102.40004336 40.9599503-143.35999366 0L512 655.36049645 225.28068297 942.07981345c-40.9599503 40.9599503-102.40004336 40.9599503-143.35999369 0-40.9599503-40.9599503-40.9599503-102.40004336 0-143.35999366L368.63950355 512 81.92018655 225.28068297C40.95956587 184.32006231 40.95956587 122.88080719 81.92018655 81.92018655c40.9599503-40.9599503 102.40004336-40.9599503 143.35999366 0L512 368.63950355Z" fill="#ffffff" p-id="2267"></path></svg>