<?xml version="1.0" encoding="utf-8"?>
<svg version="1.1" xmlns:xlink="http://www.w3.org/1999/xlink" width="24px" height="24px" xmlns="http://www.w3.org/2000/svg">
  <g transform="matrix(1 0 0 1 -978 -219 )">
    <path d="M 19.5279751810299 9.69717979431152  C 19.3789069882604 11.0398664474487  18.6335622127559 11.7858018875122  17.5900848633696 11.7858018875122  C 16.5466056081547 11.7858018875122  15.6521945457092 10.8906774520874  15.6521945457092 9.69717979431152  C 15.6521945457092 8.50368213653564  16.5466075139832 7.60855627059937  17.5900848633696 7.60855627059937  C 18.6335641185845 7.60855627059937  19.5279751810299 8.50368213653564  19.5279751810299 9.69717979431152  Z M 13.8633628916756 9.69717979431152  C 13.7142927930775 11.0398664474487  12.9689508763159 11.7858018875122  11.9254716211009 11.7858018875122  C 10.8819904600575 11.7858018875122  9.98758035052634 10.8906774520874  9.98758035052634 9.69717979431152  C 9.98758035052634 8.50368213653564  10.8819904600575 7.60855627059937  11.9254716211009 7.60855627059937  C 12.9689508763159 7.60855627059937  13.8633628916756 8.50368213653564  13.8633628916756 9.69717979431152  Z M 6.26088029586083 11.7858018875122  C 5.2174077110459 11.7858018875122  4.47205769451283 11.0398578643799  4.47205769451283 9.84637451171875  C 4.47205769451283 8.65288829803467  5.3664692334154 7.75775003433228  6.40994801217316 7.75775003433228  C 7.45342774384521 7.75775003433228  8.34783880629063 8.65287494659424  8.34783880629063 9.84637451171875  C 8.19877061352116 11.0398712158203  7.30435907461859 11.785810470581  6.26088029586083 11.785810470581  Z M 19.6770548087707 0  C 19.6770548087707 0  4.17391273274534 0  4.17391273274534 0  C 1.9378905558889 0  0 2.08862328529358  0 4.47562456130981  C 0 4.47562456130981  0 15.5154819488525  0 15.5154819488525  C 0 17.9024753570557  1.9378905558889 19.9911060333252  4.17391273274534 19.9911060333252  C 4.17391273274534 19.9911060333252  9.83850453444261 19.9911060333252  9.83850453444261 19.9911060333252  C 9.83850453444261 19.9911060333252  9.83850453444261 23.4224281311035  9.83850453444261 23.4224281311035  C 9.83850453444261 23.4224281311035  10.4347763526062 24.6159267425537  11.6273238005906 23.5716133117676  C 12.5217358159503 22.8256797790527  15.0559103396599 21.03542137146  16.2484425410158 20.1402950286865  C 16.2484425410158 20.1402950286865  19.8260886966261 20.1402950286865  19.8260886966261 20.1402950286865  C 22.0621153998254 20.1402950286865  24 17.753303527832  24 15.6646709442139  C 24 15.6646709442139  24 4.32644414901733  24 4.32644414901733  C 23.8508936906592 1.93943619728088  21.9130586420273 0  19.677031938828 0  Z " fill-rule="nonzero" fill="#757575" stroke="none" transform="matrix(1 0 0 1 978 219 )" />
  </g>
</svg>