<?xml version="1.0" encoding="utf-8"?>
<svg version="1.1" xmlns:xlink="http://www.w3.org/1999/xlink" width="21px" height="22px" xmlns="http://www.w3.org/2000/svg">
  <g transform="matrix(1 0 0 1 -497 -66 )">
    <path d="M 8.13164315632047 17.4558346464073  C 8.13164315632047 17.4558346464073  8.12992174668913 17.4558210934324  8.12992174668913 17.4558210934324  C 5.97002787301635 17.4700710784053  3.89472744111168 16.5553614451708  2.36726404634709 14.9158726000172  C 0.839799918923875 13.2763837548635  -0.0126607796720465 11.0486028670398  0.000163525311522022 8.72981375317645  C -0.0135719155299106 6.41039733019198  0.83848581113269 4.18167693079109  2.36604918562115 2.54139402652235  C 3.8936124473929 0.901111485279726  5.96943363050873 -0.0140965459363561  8.12991994322173 0.000164192385225197  C 10.29011499595 -0.0140945776541565  12.3656787340947 0.900862993906238  13.8931948802807 2.54075147030457  C 15.4207110264667 4.18063819207669  16.2729702043123 6.40889149788047  16.2596876669264 8.72799959068737  C 16.2729665973775 11.0467848322722  15.4209418702936 13.2747535256044  13.893799041859 14.9145870035468  C 12.3666580168918 16.5544204814892  10.2915388334606 17.469596724286  8.13164315632047 17.4558346464073  Z M 8.1316224164454 2.49328701628132  C 8.1316224164454 2.49328701628132  8.12992174668913 2.49330855583062  8.12992174668913 2.49330855583062  C 6.5853686948616 2.47747117867975  5.09980615988722 3.12930924808841  4.00775254640841 4.30204332050477  C 2.91569915836303 5.4747764248515  2.30896335577366 7.069814900779  2.32416748767205 8.7279879738518  C 2.32416748767205 12.2202255955194  4.87870556556742 14.9626671498556  8.12992174668913 14.9626671498556  C 11.3828566322411 14.9626671498556  13.9373771263293 12.2202033299179  13.9373771263293 8.72981375317645  C 13.9373771263293 5.23757564747398  11.3828376958334 2.49328701628132  8.1316224164454 2.49328701628132  Z M 19.0413305329762 21.6300114945996  C 19.0413305329762 21.6300114945996  19.0413106948348 21.6281644177431  19.0413106948348 21.6281644177431  C 19.0413106948348 21.6281644177431  15.5834847799358 17.9287889370635  15.5834847799358 17.9287889370635  C 15.3631804164722 17.7038540859495  15.2384670389694 17.3917484368144  15.2384670389694 17.0653560160603  C 15.2384670389694 16.738961659167  15.3631804164722 16.4268579461712  15.5834847799358 16.2019221269876  C 16.0445285959491 15.7069607094027  16.7360970251703 15.7069607094027  17.1971408411836 16.2019221269876  C 17.1971408411836 16.2019221269876  20.654986594224 19.9031456525933  20.654986594224 19.9031456525933  C 20.8752891542202 20.128078567568  21.0000007282556 20.4401861528424  21.0000007282556 20.7665785735965  C 21.0000007282556 21.0929729304898  20.8752891542202 21.4050766434856  20.654986594224 21.6300114945996  C 20.4443217640024 21.8663424614134  20.1528561839506 21.9999999631302  19.8481585636001 21.9999999631302  C 19.5434609432496 21.9999999631302  19.2519971666652 21.8663424614134  19.0413305329762 21.6300114945996  Z " fill-rule="nonzero" fill="#bdbdbd" stroke="none" transform="matrix(1 0 0 1 497 66 )" />
  </g>
</svg>