<?xml version="1.0" encoding="utf-8"?>
<svg version="1.1" xmlns:xlink="http://www.w3.org/1999/xlink" width="32px" height="32px" xmlns="http://www.w3.org/2000/svg">
  <g transform="matrix(1 0 0 1 -10 0 )">
    <path d="M 31.9977416173758 4.58360391235814  C 31.9217500939403 1.97686036787304  29.7466834773752 -0.0739369701061433  27.1405709664314 0.00204448080777933  C 24.533481857596 0.0770494632761088  22.4814055379967 2.25182777919232  22.5573970614322 4.85860183831628  C 22.5473869330439 5.66751440147925  22.7583931149849 6.42143958530606  23.1044139554313 7.09437891743603  C 23.1044139554313 7.09437891743603  9.52195151725545 14.6766563965836  9.52195151725545 14.6766563965836  C 9.00990903524717 13.7017441976891  8.20989224997091 12.9088213053209  7.21583767111922 12.4228756805003  C 7.21583767111922 12.4228756805003  9.67491116201797 6.56641463482083  9.67491116201797 6.56641463482083  C 9.9329161174893 6.63540823342173  10.1979403703061 6.68340776044488  10.4769421804455 6.68841216122797  C 10.5119776298045 6.68841216122797  10.5469520417953 6.68841216122797  10.5819874911544 6.68740517814351  C 12.374044622131 6.64941445268658  13.7950555916905 5.16554859122494  13.7560527133971 3.37372899377025  C 13.7790638012166 1.53790728699119  12.3120306560182 0.0300569193374128  10.475965582554 0.00305146389212312  C 10.475965582554 0.00305146389212312  10.4479494305404 0.00305146389212312  10.4479494305404 0.00305146389212312  C 8.6358720427872 0.022062083940107  7.18281645491151 1.50592794540174  7.20186011379654 3.31672764826539  C 7.18885915436541 4.32563315491805  7.63583580184981 5.22554037134414  8.33788761113093 5.8444993072224  C 8.33788761113093 5.8444993072224  5.75979125220068 11.9748902664977  5.75979125220068 11.9748902664977  C 5.53077904663446 11.9389135072096  5.30378107421953 11.8949113978851  5.06573533815656 11.8899069971021  C 2.22066153062645 11.95191274339  -0.0414443730222462 14.2976950958207  0.00158697157375317 17.143398777698  C 0.00158697157375317 17.143398777698  0.000549336313991481 17.1834034693237  0.000549336313991481 17.1834034693237  C -0.0414443730222462 20.0221498135269  2.2256665948206 22.358899832837  5.06573533815656 22.4008879759926  C 5.06573533815656 22.4008879759926  5.10376161855841 22.3999115075471  5.10376161855841 22.3999115075471  C 7.26582727569244 22.3529189636084  9.07888126133721 20.9740234600358  9.7969248610923 19.067224703126  C 9.7969248610923 19.067224703126  18.2182505545817 23.3708262887429  18.2182505545817 23.3708262887429  C 17.9892383490155 23.9997329969094  17.8492186263159 24.6716653459549  17.8272451737562 25.3756380658678  C 17.7192090320046 28.9252839530189  20.5093492081355 31.8919781782188  24.0604422538811 32  C 24.0954777032401 32  24.1314287131225 31.9989625022767  24.1664641624815 31.9979860338312  C 27.6205688301235 31.9189531190252  30.3566909353786 29.0542388171  30.2766709456405 25.6005919839951  C 30.3406991449046 22.1019055438424  27.5595924992704 19.2132067357252  24.0604422538811 19.1432061540398  C 21.7683670024358 19.2132067357252  19.784286311035 20.4801135144568  18.7002626514251 22.3388822297047  C 18.7002626514251 22.3388822297047  10.0699450091461 17.9283268346688  10.0699450091461 17.9283268346688  C 10.1039428232453 17.6703560772287  10.1379406373446 17.413392302873  10.1319589752589 17.1454127438669  C 10.1389172352361 16.6934604268044  10.0689684112545 16.2614951982355  9.96593733369702 15.8415222227626  C 9.96593733369702 15.8415222227626  23.8014607005182 8.11826711179896  23.8014607005182 8.11826711179896  C 24.6624538166476 9.07319222220003  25.8915022631512 9.6911136603549  27.2775388207199 9.71412169810157  C 29.9196633789143 9.6701195887771  32.0287486004322 7.50034567364409  31.9977416173758 4.85860183831628  C 32.0007324484187 4.76660020196882  32.0007324484187 4.67560554870566  31.9977416173758 4.58360391235814  Z " fill-rule="nonzero" fill="#c1c1c1" stroke="none" fill-opacity="0.996078431372549" transform="matrix(1 0 0 1 10 0 )" />
  </g>
</svg>