<?xml version="1.0" encoding="utf-8"?>
<svg version="1.1" xmlns:xlink="http://www.w3.org/1999/xlink" width="24px" height="28px" xmlns="http://www.w3.org/2000/svg">
  <g transform="matrix(1 0 0 1 -2 0 )">
    <path d="M 16.3846130371094 10.0453840489854  C 16.3846130371094 10.0453840489854  13.0615310668945 10.0453840489854  13.0615310668945 10.0453840489854  C 13.0615310668945 10.0453840489854  13.0615310668945 6.72807657675639  13.0615310668945 6.72807657675639  C 13.0615310668945 6.12067997412578  12.553840637207 5.60673105673686  11.9538345336914 5.60673105673686  C 11.3538360595703 5.60673105673686  10.8461456298828 6.12068045096294  10.8461456298828 6.72807657675639  C 10.8461456298828 6.72807657675639  10.8461456298828 10.0453840489854  10.8461456298828 10.0453840489854  C 10.8461456298828 10.0453840489854  7.52306365966797 10.0453840489854  7.52306365966797 10.0453840489854  C 6.92306518554688 10.0453840489854  6.41537475585938 10.5593315358628  6.41537475585938 11.1667286153306  C 6.41537475585938 11.7741256947984  6.92306518554688 12.2880750890245  7.52306365966797 12.2880750890245  C 7.52306365966797 12.2880750890245  10.8461456298828 12.2880750890245  10.8461456298828 12.2880750890245  C 10.8461456298828 12.2880750890245  10.8461456298828 15.6053816075791  10.8461456298828 15.6053816075791  C 10.8461456298828 16.2127777333726  11.3538360595703 16.7267261739244  11.9538345336914 16.7267261739244  C 12.553840637207 16.7267261739244  13.0615310668945 16.2127777333726  13.0615310668945 15.6053816075791  C 13.0615310668945 15.6053816075791  13.0615310668945 12.2880750890245  13.0615310668945 12.2880750890245  C 13.0615310668945 12.2880750890245  16.3846130371094 12.2880750890245  16.3846130371094 12.2880750890245  C 16.9846115112305 12.2880750890245  17.492301940918 11.7741256947984  17.492301940918 11.1667286153306  C 17.492301940918 10.5593315358628  16.9846115112305 10.0453840489854  16.3846130371094 10.0453840489854  Z M 21.0000076293945 0  C 22.6615524291992 0  24 1.30823802904979  24 2.94353330092326  C 24 2.94353330092326  24 25.136848091649  24 25.136848091649  C 24 26.2581974263658  23.3538436889648 27.3328186269273  22.2923049926758 27.8000465627183  C 21.6461486816406 28.1271072621812  20.9076843261719 28.0336605306138  20.2615356445313 27.6598793263902  C 20.2615356445313 27.6598793263902  12 22.8941589589585  12 22.8941589589585  C 12 22.8941589589585  3.73846435546875 27.6599594350328  3.73846435546875 27.6599594350328  C 3.13846588134766 28.0337406392564  2.35384368896484 28.0804611440171  1.70769500732422 27.8001266713609  C 0.646148681640625 27.2860771413316  0 26.2581936116685  0 25.136848091649  C 0 25.136848091649  0 2.94353330092326  0 2.94353330092326  C 0 1.30823802904979  1.33846282958984 0  2.99999237060547 0  C 2.99999237060547 0  21.0000076293945 0  21.0000076293945 0  Z " fill-rule="nonzero" fill="#c1c1c1" stroke="none" fill-opacity="0.996078431372549" transform="matrix(1 0 0 1 2 0 )" />
  </g>
</svg>