<?xml version="1.0" encoding="utf-8"?>
<svg version="1.1" xmlns:xlink="http://www.w3.org/1999/xlink" width="6px" height="6px" xmlns="http://www.w3.org/2000/svg">
  <g transform="matrix(1 0 0 1 -693 -365 )">
    <path d="M 5.47343739395999 3.02904309467255  C 5.41988304516413 2.99236016342128  5.36183301807716 2.96271759639817  5.30071598235492 2.94084492704446  C 4.56555880777894 2.62090640250602  4.18760679134426 1.80016541284246  4.42240922972517 1.03355955208687  C 4.44038937493954 0.976280221902757  4.45149214700181 0.917065437570536  4.45548354258568 0.857163216830684  C 4.45671092943252 0.839217948980001  4.45732515973325 0.821236001094205  4.45732515973325 0.803248807963967  C 4.45732515973325 0.36688388575714  4.10358149693839 0.0131402229622678  3.66721657473156 0.0131402229622678  C 3.41744092595295 0.0131402229622678  3.1823740716691 0.131246428473939  3.03328808958264 0.331649134713276  C 2.99792906545637 0.379455715208407  2.96832562520932 0.431261735640763  2.94508992195453 0.485995928062446  C 2.62515139741612 1.22115310263845  1.80441040775253 1.59910511907314  1.03780454699694 1.36430268069224  C 0.980525216812802 1.34632253547784  0.921310432480587 1.33521976341554  0.861408211740719 1.3312283678317  C 0.842472251811249 1.32986112946336  0.823493164426939 1.32917684399667  0.804507909116434 1.32917684399667  C 0.368142986909602 1.32917684399667  0.0143993241147444 1.68292050679154  0.0143993241147444 2.11928542899837  C 0.0143993241147444 2.37357389235349  0.136787469949931 2.61232053303076  0.3432439769257 2.7607736681371  C 0.391050557420816 2.79613269226335  0.442856577853141 2.8257361325104  0.497590770274842 2.84897183576519  C 1.23274794485086 3.16891036030362  1.61069996128555 3.98965134996718  1.37589752290464 4.75625721072277  C 1.35791737769027 4.8135365409069  1.3468146056279 4.87275132523912  1.34282321004408 4.93265354597897  C 1.34116402550334 4.95350403294056  1.34033345175644 4.97441218220428  1.34033345175644 4.99532858007474  C 1.34033345175644 5.43169350228157  1.6940771145513 5.78543716507644  2.13044203675813 5.78543716507644  C 2.38723283654627 5.78543716507644  2.62800626750495 5.66064273686881  2.77604343400066 5.45081778079403  C 2.81140245812692 5.4030112002989  2.84100589837402 5.35120517986655  2.86424160162872 5.29647098744486  C 3.18418012616713 4.56131381286884  4.00492111583077 4.18336179643414  4.77152697658641 4.41816423481507  C 4.82880630677054 4.43614438002947  4.88802109110276 4.44724715209176  4.94792331184258 4.45123854767561  C 4.9658685796929 4.4524659345224  4.9838505275794 4.45308016482317  5.00183772070925 4.45308016482317  C 5.43820264291608 4.45308016482317  5.79194630571094 4.0993365020283  5.79194630571094 3.66297157982148  C 5.79194630571094 3.41319593104292  5.67384010019923 3.17812907675904  5.47343739395999 3.02904309467255  Z " fill-rule="nonzero" fill="#4d8af0" stroke="none" transform="matrix(1 0 0 1 693 365 )" />
  </g>
</svg>