<?xml version="1.0" encoding="utf-8"?>
<svg version="1.1" xmlns:xlink="http://www.w3.org/1999/xlink" width="6px" height="6px" xmlns="http://www.w3.org/2000/svg">
  <g transform="matrix(1 0 0 1 -546 -414 )">
    <path d="M 5.32968527315916 3.10554462164914  C 5.28785451522591 3.07018559752288  5.24252424734758 3.04058215727582  5.19463182897861 3.01734645402104  C 4.5513693012246 2.69740792948259  4.22066128684427 1.87666693981905  4.42611342042756 1.11006107906346  C 4.44184604749016 1.05278174887935  4.45156097304467 0.993566964547122  4.45505344418051 0.933664743807266  C 4.45612740767145 0.915719475956995  4.45666485918466 0.897737528070337  4.45666485918466 0.879750334940525  C 4.45666485918466 0.443385412733704  4.14713915423913 0.0896417499388227  3.76531984730816 0.0896417499388227  C 3.54676615462692 0.0896417499388227  3.3410826571285 0.207747955450506  3.21063242280285 0.408150661689855  C 3.17969327669237 0.455957242184983  3.1537902664762 0.507763262617345  3.13345902612826 0.562497455039022  C 2.85351281715712 1.29765462961504  2.1353644512015 1.67560664604969  1.46458432304036 1.44080420766882  C 1.41446490912926 1.42282406245441  1.36265197283858 1.41172129039212  1.31023752969119 1.40772989480827  C 1.29453542032216 1.40650250796147  1.2788012159215 1.4058882776607  1.26306242193284 1.4058882776607  C 0.881243115001858 1.4058882776607  0.571717410056337 1.75963194045557  0.571717410056337 2.1959968626624  C 0.571717410056337 2.44577251144093  0.67506033987906 2.68083936572484  0.850412707838458 2.82992534781132  C 0.892243465771728 2.86528437193759  0.937573733650012 2.89488781218464  0.985466152019001 2.91812351543942  C 1.628728679773 3.23806203997786  1.95943669415333 4.05880302964141  1.75398456057005 4.82540889039701  C 1.73825193350746 4.88268822058112  1.72853700795294 4.94190300491336  1.7250445368171 5.00180522565319  C 1.72397057332614 5.01975049350345  1.72343312181296 5.0377324413901  1.72343312181296 5.05571963451992  C 1.72343312181296 5.49208455672674  2.03295882675848 5.84582821952162  2.41477813368944 5.84582821952162  C 2.63333182637068 5.84582821952162  2.83901532386911 5.72772201400994  2.96946555819476 5.5273193077706  C 3.00040470430525 5.47951272727548  3.02630771452142 5.42770670684313  3.04663895486936 5.37297251442145  C 3.32658516384049 4.63781533984545  4.04473352979611 4.25986332341077  4.71551365795725 4.49466576179165  C 4.76563307186837 4.51264590700606  4.81744600815904 4.52374867906835  4.86986045130642 4.52774007465219  C 4.88556256067535 4.52896746149897  4.9012967650762 4.52958169179976  4.91703555906478 4.52958169179976  C 5.29885486599574 4.52958169179976  5.60838057094126 4.17583802900489  5.60838057094126 3.73947310679807  C 5.60838057094126 3.48969745801953  5.50503764111856 3.25463060373562  5.32968527315916 3.10554462164914  Z " fill-rule="nonzero" fill="#fdd835" stroke="none" transform="matrix(1 0 0 1 546 414 )" />
  </g>
</svg>