<?xml version="1.0" encoding="utf-8"?>
<svg version="1.1" xmlns:xlink="http://www.w3.org/1999/xlink" width="6px" height="6px" xmlns="http://www.w3.org/2000/svg">
  <g transform="matrix(1 0 0 1 -754 -619 )">
    <path d="M 5.23043942992871 2.98533847980995  C 5.18860867199552 2.95439933369947  5.14327840411724 2.9284963234833  5.09538598574821 2.9081650831354  C 4.45212345799419 2.62821887416425  4.12141544361384 1.91007050820861  4.32686757719713 1.23929038004746  C 4.34260020425975 1.18917096613634  4.35231512981429 1.13735802984566  4.35580760095013 1.08494358669832  C 4.35688156444107 1.06924147732937  4.35741901595429 1.05350727292851  4.35741901595429 1.03776847893994  C 4.35741901595429 0.655949172009002  4.04789331100875 0.346423467063502  3.66607400407773 0.346423467063502  C 3.44752031139657 0.346423467063502  3.24183681389812 0.449766396886162  3.11138657957247 0.625118764845581  C 3.08044743346198 0.66694952277885  3.05454442324586 0.712279790657135  3.03421318289787 0.760172209026081  C 2.75426697392672 1.40343473678018  2.03611860797116 1.73414275116041  1.36533847980994 1.52869061757715  C 1.31521906589882 1.51295799051458  1.26340612960817 1.50324306496005  1.21099168646083 1.4997505938242  C 1.1952895770915 1.49867663033322  1.17955537269137 1.49813917882004  1.16381657870241 1.49813917882004  C 0.781997271771473 1.49813917882004  0.472471566825931 1.80766488376558  0.472471566825931 2.18948419069656  C 0.472471566825931 2.40803788337776  0.575814496648633 2.61372138087613  0.751166864608052 2.74417161520186  C 0.792997622541321 2.77511076131235  0.838327890419606 2.80101377152852  0.886220308788552 2.82134501187646  C 1.52948283654257 3.10129122084761  1.86019085092292 3.81943958680317  1.65473871733963 4.4902197149644  C 1.63900609027709 4.54033912887552  1.62929116472256 4.5921520651662  1.62579869358672 4.6445665083135  C 1.62472473009569 4.66026861768245  1.62418727858255 4.67600282208331  1.62418727858255 4.69174161607188  C 1.62418727858255 5.07356092300286  1.93371298352801 5.38308662794836  2.31553229045903 5.38308662794836  C 2.53408598314027 5.38308662794836  2.73976948063864 5.27974369812561  2.87021971496438 5.10439133016624  C 2.90115886107486 5.06256057223305  2.92706187129099 5.01723030435468  2.94739311163889 4.96933788598574  C 3.22733932061004 4.32607535823172  3.94548768656577 3.99536734385137  4.61626781472691 4.20081947743471  C 4.66638722863794 4.21655210449728  4.71820016492867 4.22626703005177  4.77061460807602 4.22975950118766  C 4.78631671744535 4.2308334646786  4.80205092184539 4.23137091619169  4.81778971583435 4.23137091619169  C 5.19960902276537 4.23137091619169  5.50913472771083 3.92184521124619  5.50913472771083 3.54002590431521  C 5.50913472771083 3.32147221163402  5.40579179788813 3.11578871413565  5.23043942992871 2.98533847980995  Z " fill-rule="nonzero" fill="#fdd835" stroke="none" transform="matrix(1 0 0 1 754 619 )" />
  </g>
</svg>