<?xml version="1.0" encoding="utf-8"?>
<svg version="1.1" xmlns:xlink="http://www.w3.org/1999/xlink" width="24px" height="22px" xmlns="http://www.w3.org/2000/svg">
  <g transform="matrix(1 0 0 1 -872 -220 )">
    <path d="M 0.00562286376953125 22  C 0.00562286376953125 22  0.00562286376953125 11.5145721435547  0.00562286376953125 11.5145721435547  C -0.03839111328125 10.0058517456055  0.176155090332031 8.58922576904303  0.64910888671875 7.26452636718751  C 1.12191772460938 5.93989562988281  1.78480529785156 4.77433776855472  2.64282989501953 3.76743316650392  C 3.49806213378906 2.76360321044922  4.52108764648438 1.92971801757812  5.71747589111328 1.26597595214842  C 6.91104888916016 0.60499572753902  8.20631408691406 0.181190490722614  9.60333251953125 0  C 9.60333251953125 0  9.60333251953125 4.52317047119142  9.60333251953125 4.52317047119142  C 7.89010620117188 5.11716461181642  6.71855163574219 5.99550628662112  6.08869171142578 7.16130828857422  C 5.45613098144531 8.32702636718751  5.14270782470703 9.75475311279303  5.14270782470703 11.4446640014648  C 5.14270782470703 11.4446640014648  10 11.4446640014648  10 11.4446640014648  L 10 21.9998779296875  L 0.00562286376953125 21.9999084472656  Z M 14.4021682739258 22  C 14.4021682739258 22  14.4021682739258 11.5145721435547  14.4021682739258 11.5145721435547  C 14.3554000854492 10.0058517456055  14.5699996948242 8.58922576904303  15.0428314208984 7.26452636718751  C 15.5159759521484 5.93989562988281  16.1814117431641 4.77433776855472  17.0366134643555 3.76743316650392  C 17.8918228149414 2.76360321044922  18.9175872802734 1.92971801757812  20.1112518310547 1.26597595214842  C 21.3048706054688 0.60499572753902  22.6028823852539 0.181190490722614  24 0  C 24 0  24 4.52317047119142  24 4.52317047119142  C 22.2866592407227 5.11716461181642  21.115119934082 5.99550628662112  20.4852905273438 7.16130828857422  C 19.8527679443359 8.32702636718751  19.5392913818359 9.75475311279303  19.5392913818359 11.4446640014648  C 19.5392913818359 11.4446640014648  24 11.4446640014648  24 11.4446640014648  L 24 21.9998779296875  L 14.4021835327148 21.9998779296875  Z " fill-rule="nonzero" fill="#757575" stroke="none" transform="matrix(1 0 0 1 872 220 )" />
  </g>
</svg>