<?xml version="1.0" encoding="utf-8"?>
<svg version="1.1" xmlns:xlink="http://www.w3.org/1999/xlink" width="26px" height="26px" xmlns="http://www.w3.org/2000/svg">
  <g transform="matrix(1 0 0 1 -8 0 )">
    <path d="M 26 1.29783612599283  C 26 0.582836459776827  25.4137876697798 0  24.6959682452769 0  C 24.6959682452769 0  1.30402412532634 0  1.30402412532634 0  C 0.586212330220253 0  0 0.582836459776827  0 1.29783612599283  C 0 1.29783612599283  0 24.7021715033558  0 24.7021715033558  C 0 25.4171635402232  0.586208515521861 26  1.30402412532634 26  C 1.30402412532634 26  24.6959682452769 26  24.6959682452769 26  C 25.4137876697798 26  26 25.4171711695718  26 24.7021715033558  C 26 24.7021715033558  26 1.29783612599283  26 1.29783612599283  Z M 23.393058011879 2.59676706351506  L 23.3930351236887 7.79134259663414  L 18.2530876315447 7.79134259663414  L 18.2530876315447 2.59676706351506  L 23.393058011879 2.59676706351506  Z M 15.6450164927017 7.79134259663414  L 10.4300071804361 7.79134259663414  L 10.4300071804361 2.59676706351506  L 15.6450164927017 2.59676706351506  L 15.6450164927017 7.79134259663414  Z M 2.60696869100972 10.3880753280803  L 7.82197037387859 10.3881020308006  L 7.82197037387859 15.583772375449  L 2.60696869100972 15.5837494874031  L 2.60696869100972 10.3880753280803  Z M 10.4300109951345 18.1794255540631  L 15.6450203074001 18.1794255540631  L 15.6450203074001 23.4021686423501  L 10.4300109951345 23.4021686423501  L 10.4300109951345 18.1794255540631  Z M 23.393058011879 15.5837494874031  L 18.2530876315447 15.5837494874031  L 18.2530876315447 10.3880753280803  L 23.393058011879 10.3880753280803  L 23.393058011879 15.5837494874031  Z M 2.60696869100972 23.4021762716987  L 2.60696869100972 18.1794255540631  L 7.82197037387859 18.1794255540631  L 7.82197037387859 23.4021686423501  L 2.60696869100972 23.4021762716987  Z " fill-rule="nonzero" fill="#c1c1c1" stroke="none" transform="matrix(1 0 0 1 8 0 )" />
  </g>
</svg>