<?xml version="1.0" encoding="utf-8"?>
<svg version="1.1" xmlns:xlink="http://www.w3.org/1999/xlink" width="12px" height="19px" xmlns="http://www.w3.org/2000/svg">
  <defs>
    <mask fill="white" id="clip51">
      <path d="M 11.4165909414922 18.9999999553877  C 11.4165909414922 18.9999999553877  11.4176174153438 18.999916203168  11.4176174153438 18.999916203168  C 11.2956157913332 18.9998058025148  11.17670846531 18.9604765215467  11.0777058061477 18.8874788482755  C 11.0777058061477 18.8874788482755  5.99793961408052 15.1303542743624  5.99793961408052 15.1303542743624  C 5.99793961408052 15.1303542743624  0.918128792715562 18.8854364361915  0.918128792715562 18.8854364361915  C 0.741857942465397 19.0163754177906  0.508535973073629 19.0344297315058  0.315038213836322 18.9321073605966  C 0.121228049513782 18.8307519471327  -0.000550428007391544 18.6265507113867  0 18.4037717105527  C 0 18.4037717105527  0 0.594012811253203  0 0.594012811253203  C -0.000282652219942226 0.436385512700583  0.060770227299549 0.285132900139754  0.169665714161799 0.173672986590628  C 0.27856120102405 0.0622130656061141  0.426328806352264 -0.000280023248895493  0.580314760520427 0  C 0.580314760520427 0  11.4196703630469 0  11.4196703630469 0  C 11.5736711936477 -0.000281226445837771  11.721438798976 0.0622114409736571  11.8303194094057 0.173671677962196  C 11.9392148962679 0.285131859185319  12.0002677757874 0.436385512700583  12.0000000000001 0.594013881949193  C 12.0000000000001 0.594013881949193  12.0000000000001 18.4058978748563  12.0000000000001 18.4058978748563  C 11.9995685834537 18.6286825860689  11.8775967123084 18.8325659440721  11.6839501887447 18.9342354283598  C 11.6010587061223 18.9771907997473  11.5094942632757 18.999714436457  11.4165909414922 18.9999999553877  Z " fill-rule="evenodd" />
    </mask>
  </defs>
  <g transform="matrix(1 0 0 1 -29 -15 )">
    <path d="M 11.4165909414922 18.9999999553877  C 11.4165909414922 18.9999999553877  11.4176174153438 18.999916203168  11.4176174153438 18.999916203168  C 11.2956157913332 18.9998058025148  11.17670846531 18.9604765215467  11.0777058061477 18.8874788482755  C 11.0777058061477 18.8874788482755  5.99793961408052 15.1303542743624  5.99793961408052 15.1303542743624  C 5.99793961408052 15.1303542743624  0.918128792715562 18.8854364361915  0.918128792715562 18.8854364361915  C 0.741857942465397 19.0163754177906  0.508535973073629 19.0344297315058  0.315038213836322 18.9321073605966  C 0.121228049513782 18.8307519471327  -0.000550428007391544 18.6265507113867  0 18.4037717105527  C 0 18.4037717105527  0 0.594012811253203  0 0.594012811253203  C -0.000282652219942226 0.436385512700583  0.060770227299549 0.285132900139754  0.169665714161799 0.173672986590628  C 0.27856120102405 0.0622130656061141  0.426328806352264 -0.000280023248895493  0.580314760520427 0  C 0.580314760520427 0  11.4196703630469 0  11.4196703630469 0  C 11.5736711936477 -0.000281226445837771  11.721438798976 0.0622114409736571  11.8303194094057 0.173671677962196  C 11.9392148962679 0.285131859185319  12.0002677757874 0.436385512700583  12.0000000000001 0.594013881949193  C 12.0000000000001 0.594013881949193  12.0000000000001 18.4058978748563  12.0000000000001 18.4058978748563  C 11.9995685834537 18.6286825860689  11.8775967123084 18.8325659440721  11.6839501887447 18.9342354283598  C 11.6010587061223 18.9771907997473  11.5094942632757 18.999714436457  11.4165909414922 18.9999999553877  Z " fill-rule="nonzero" fill="#ffffff" stroke="none" fill-opacity="0" transform="matrix(1 0 0 1 29 15 )" />
    <path d="M 11.4165909414922 18.9999999553877  C 11.4165909414922 18.9999999553877  11.4176174153438 18.999916203168  11.4176174153438 18.999916203168  C 11.2956157913332 18.9998058025148  11.17670846531 18.9604765215467  11.0777058061477 18.8874788482755  C 11.0777058061477 18.8874788482755  5.99793961408052 15.1303542743624  5.99793961408052 15.1303542743624  C 5.99793961408052 15.1303542743624  0.918128792715562 18.8854364361915  0.918128792715562 18.8854364361915  C 0.741857942465397 19.0163754177906  0.508535973073629 19.0344297315058  0.315038213836322 18.9321073605966  C 0.121228049513782 18.8307519471327  -0.000550428007391544 18.6265507113867  0 18.4037717105527  C 0 18.4037717105527  0 0.594012811253203  0 0.594012811253203  C -0.000282652219942226 0.436385512700583  0.060770227299549 0.285132900139754  0.169665714161799 0.173672986590628  C 0.27856120102405 0.0622130656061141  0.426328806352264 -0.000280023248895493  0.580314760520427 0  C 0.580314760520427 0  11.4196703630469 0  11.4196703630469 0  C 11.5736711936477 -0.000281226445837771  11.721438798976 0.0622114409736571  11.8303194094057 0.173671677962196  C 11.9392148962679 0.285131859185319  12.0002677757874 0.436385512700583  12.0000000000001 0.594013881949193  C 12.0000000000001 0.594013881949193  12.0000000000001 18.4058978748563  12.0000000000001 18.4058978748563  C 11.9995685834537 18.6286825860689  11.8775967123084 18.8325659440721  11.6839501887447 18.9342354283598  C 11.6010587061223 18.9771907997473  11.5094942632757 18.999714436457  11.4165909414922 18.9999999553877  Z " stroke-width="4" stroke="#90a4ae" fill="none" transform="matrix(1 0 0 1 29 15 )" mask="url(#clip51)" />
  </g>
</svg>