<?xml version="1.0" encoding="utf-8"?>
<svg version="1.1" xmlns:xlink="http://www.w3.org/1999/xlink" width="24px" height="28px" xmlns="http://www.w3.org/2000/svg">
  <g transform="matrix(1 0 0 1 -2 0 )">
    <path d="M 24.0000000000001 2.8011779785156  C 24.0000000000001 1.25244140625  22.8035736083984 0  21.3324890136718 0  C 21.3324890136718 0  2.66751098632815 0  2.66751098632815 0  C 1.19642639160156 0  0 1.25636291503909  0 2.8011779785156  C 0 2.8011779785156  0 25.1988220214844  0 25.1988220214844  C 0 26.7475738525391  1.19642639160156 28  2.66751098632815 28  C 2.66751098632815 28  21.3324890136718 28  21.3324890136718 28  C 22.8073425292968 28  24.0000000000001 26.7436065673828  24.0000000000001 25.1988220214844  C 24.0000000000001 25.1988220214844  24.0000000000001 2.8011779785156  24.0000000000001 2.8011779785156  Z M 10.4894256591797 11.9000854492188  C 10.7264556884766 12.3307495117188  10.7264556884766 12.8641204833985  10.4894256591797 13.2987213134766  C 10.2523803710938 13.7293701171875  9.81219482421875 13.998031616211  9.33438110351565 13.998031616211  C 9.33438110351565 13.998031616211  5.33500671386716 13.998031616211  5.33500671386716 13.998031616211  C 4.85719299316406 13.998031616211  4.41699218750006 13.7333221435547  4.17996215820315 13.2987213134766  C 3.94294738769534 12.8680725097656  3.94294738769534 12.334701538086  4.17996215820315 11.9000854492188  C 4.41699218750006 11.4694519042969  4.85719299316406 11.2007751464844  5.33500671386716 11.2007751464844  C 5.33500671386716 11.2007751464844  9.33438110351565 11.2007751464844  9.33438110351565 11.2007751464844  C 9.81219482421875 11.2007751464844  10.2523803710938 11.4654998779297  10.4894256591797 11.9000854492188  Z M 14.6656188964843 7.00099182128909  C 14.6656188964843 7.77140808105469  14.0711669921876 8.39959716796878  13.3337554931641 8.39959716796878  C 13.3337554931641 8.39959716796878  5.33500671386716 8.39959716796878  5.33500671386716 8.39959716796878  C 4.60134887695315 8.39959716796878  4.00314331054685 7.77537536621099  4.00314331054685 7.00099182128909  C 4.00314331054685 6.23057556152349  4.59759521484375 5.60235595703128  5.33500671386716 5.60235595703128  C 5.33500671386716 5.60235595703128  13.3337554931641 5.60235595703128  13.3337554931641 5.60235595703128  C 14.0674133300782 5.60235595703128  14.6656188964843 6.22660827636719  14.6656188964843 7.00099182128909  Z " fill-rule="nonzero" fill="#c1c1c1" stroke="none" fill-opacity="0.996078431372549" transform="matrix(1 0 0 1 2 0 )" />
  </g>
</svg>