<?xml version="1.0" encoding="utf-8"?>
<svg version="1.1" xmlns:xlink="http://www.w3.org/1999/xlink" width="20px" height="20px" xmlns="http://www.w3.org/2000/svg">
  <g transform="matrix(1 0 0 1 -168 -12 )">
    <path d="M 11.0099979362496 10.0000038146958  L 14.4335729852398 13.4235712342944  L 13.4235712342944 14.4335729852398  L 10.0000038146958 11.0099979362496  L 6.57642876570558 14.4335729852398  L 5.5664270147602 13.4235712342944  L 8.98999443435881 10.0000038146958  L 5.5664270147602 6.57642876570558  L 6.57642876570558 5.5664270147602  L 10.0000038146958 8.98999443435881  L 13.4235712342944 5.5664270147602  L 14.4335729852398 6.57642876570558  L 11.0099979362496 10.0000038146958  Z M 20 10.0000038146958  C 20 4.47714062609076  15.5228517445176 0  10.0000038146958 0  C 4.47714062609076 0  0 4.47714062609076  0 10.0000038146958  C 0 15.5228517445176  4.47714062609076 20  10.0000038146958 20  C 15.5228517445176 20  20 15.5228517445176  20 10.0000038146958  Z " fill-rule="nonzero" fill="#bdbdbd" stroke="none" transform="matrix(1 0 0 1 168 12 )" />
  </g>
</svg>