<?xml version="1.0" encoding="utf-8"?>
<svg version="1.1" xmlns:xlink="http://www.w3.org/1999/xlink" width="19px" height="18px" xmlns="http://www.w3.org/2000/svg">
  <g transform="matrix(1 0 0 1 -41 -176 )">
    <path d="M 17.3076934814453 0  C 17.3076934814453 0  0.692306518554688 0  0.692306518554688 0  C 0.309951782226563 0  0 0.308067116093615  0 0.688063066076827  C 0 0.688063066076827  0 13.0732285859821  0 13.0732285859821  C 0 13.4532397012265  0.309951782226563 13.7613068173201  0.692306518554688 13.7613068173201  C 0.692306518554688 13.7613068173201  6.92308044433597 13.7613068173201  6.92308044433597 13.7613068173201  L 6.92308044433597 12.3851655199053  L 1.38462066650391 12.3851655199053  L 1.38462066650391 1.37614129741483  L 16.6153793334961 1.37614129741483  L 16.6153793334961 12.3851655199053  C 16.6153793334961 12.3851655199053  11.0769348144532 12.3851655199053  11.0769348144532 12.3851655199053  C 10.8858489990235 12.3851655199053  10.7127685546875 12.4622202120817  10.5867691040039 12.5867725023484  C 10.5867691040039 12.5867725023484  7.12592315673827 16.0270726674714  7.12592315673827 16.0270726674714  L 8.10484313964847 17  L 11.3635406494141 13.7613068173201  C 11.3635406494141 13.7613068173201  17.3076934814453 13.7613068173201  17.3076934814453 13.7613068173201  C 17.6900405883789 13.7613068173201  18 13.4532397012265  18 13.0732285859821  C 18 13.0732285859821  18 0.688063066076827  18 0.688063066076827  C 18 0.308067116093615  17.6900405883789 0  17.3076934814453 0  Z " fill-rule="nonzero" fill="#bdbdbd" stroke="none" transform="matrix(1 0 0 1 41 176 )" />
  </g>
</svg>