<?xml version="1.0" encoding="utf-8"?>
<svg version="1.1" xmlns:xlink="http://www.w3.org/1999/xlink" width="12px" height="3px" xmlns="http://www.w3.org/2000/svg">
  <g transform="matrix(1 0 0 1 -44 -182 )">
    <path d="M 6.47053031252456 1.00002578183417  C 6.47975607304034 0.645963853868564  6.29696785237681 0.314770412767164  5.99307826953987 0.134967901616521  C 5.68920383573494 -0.0448603913681939  5.31209898102105 -0.0449893005388403  5.00811850399174 0.134632737772965  C 4.7041531759946 0.314228994250699  4.52113771985033 0.645293526181453  4.53012109585346 0.999355454147008  C 4.54352798921389 1.527573671591  4.9737604993121 1.94887462294068  5.49999242548403 1.94902931394539  C 6.02625464971992 1.94920978678428  6.456774991427 1.52824399927816  6.47053031252456 1.00002578183417  Z M 0.000333278704977436 1.00002578183417  C -0.00889248181080444 1.3540619279656  0.173895738852722 1.68522958723284  0.477785321689752 1.86505788021765  C 0.781629457430531 2.04486039136824  1.1587343121444 2.04496351870472  1.46272993820572 1.86539304406115  C 1.76671041523494 1.68577100574935  1.94972587137921 1.35468069198448  1.94074249537607 1.00064454585304  C 1.92733560201562 0.472400546574883  1.49710309191741 0.051125377059324  0.97084086768144 0.0509449042205343  C 0.444608941509616 0.0507644313816485  0.0140885998025117 0.471781782556011  0.000333278704977436 1.00002578183417  Z M 10.999666721295 1.00002578183417  C 11.0088470347147 0.645963853868564  10.8260891121152 0.314796194601284  10.5222146783103 0.134967901616521  C 10.2183553935374 -0.0448088277000026  9.84125053882355 -0.044937736870601  9.53727006179434 0.134632737772965  C 9.23327443573301 0.314254776084771  9.05025897958875 0.645319308015572  9.05924235559188 0.999355454147008  C 9.07264924895233 1.52759945342512  9.50288175905054 1.94890040477484  10.0291439832865 1.94905509577951  C 10.5553759094583 1.94926135045247  10.9858962511654 1.52826978111223  10.999666721295 1.00002578183417  Z " fill-rule="nonzero" fill="#bdbdbd" stroke="none" transform="matrix(1 0 0 1 44 182 )" />
  </g>
</svg>