<?xml version="1.0" encoding="utf-8"?>
<svg version="1.1" xmlns:xlink="http://www.w3.org/1999/xlink" width="52px" height="211px" xmlns="http://www.w3.org/2000/svg">
  <g transform="matrix(1 0 0 1 -694 -387 )">
    <path d="M 24.898701986755 161.419659295082  L 25.527523178808 122.534434704918  L 51.706940397351 74.4278183114754  L 25.626357615894 116.434459295082  L 25.9090860927152 98.9501691311476  L 43.9517086092715 64.1455461803279  L 25.9838145695364 94.3230429016394  L 26.4924503311258 62.8767789672131  L 45.8130331125828 35.1679822459017  L 26.5723443708609 57.9317691311475  L 26.8901986754967 0.270311754098375  L 24.8931920529801 76.6038855245902  L 25.0574569536424 73.454797  L 5.41419867549668 43.2541248688525  L 24.742357615894 79.4997740491804  L 22.9120264900662 114.619859295082  L 22.8576158940397 113.687654377049  L 0.212476821192059 81.905865852459  L 22.7890860927152 116.980983885246  L 22.5600794701987 121.373242901639  L 22.5190993377484 121.439310114754  L 22.5376953642384 121.799739622951  L 17.8941986754967 210.902964213115  L 24.0983841059603 210.902964213115  L 24.8429139072848 164.879367491803  L 47.3640794701987 129.890378967213  L 24.898701986755 161.419659295082  Z " fill-rule="nonzero" fill="#3f3d56" stroke="none" transform="matrix(1 0 0 1 694 387 )" />
  </g>
</svg>