<?xml version="1.0" encoding="utf-8"?>
<svg version="1.1" xmlns:xlink="http://www.w3.org/1999/xlink" width="32px" height="105px" xmlns="http://www.w3.org/2000/svg">
  <g transform="matrix(1 0 0 1 -768 -503 )">
    <path d="M 31.2068104347826 0.240788372092972  L 2.44051826086956 1.47719651162792  L 0.355770434782639 1.47719651162792  C 0.193305486295487 7.81502629451473  0.546943457886537 14.1555815119469  1.41316173913041 20.4357034883721  C 2.85147478260866 30.9453104651163  6.54999999999998 55.055588372093  6.54999999999998 55.055588372093  C 6.54999999999998 55.055588372093  6.1390504347826 59.5891465116279  7.37189217391302 61.0316406976744  C 8.60473391304344 62.4741348837209  8.81020521739127 60.6195  9.01567999999999 63.9166325581395  C 9.22115478260872 67.213765116279  11.1731513043478 90.1376790697674  11.1731513043478 90.1376790697674  C 11.1731513043478 90.1376790697674  12.5087269565217 94.827261627907  11.0704139130434 95.8576151162791  C 9.63210086956516 96.8879686046511  6.75547130434781 102.451880232558  8.81020521739127 103.276161627907  C 10.8649391304347 104.100443023256  25.0426086956522 105.1308  25.6590295652174 104.512587209302  C 26.2754504347826 103.894374418605  25.6590295652174 65.1530755813953  25.6590295652174 65.1530755813953  C 25.6590295652174 65.1530755813953  25.24808 57.3223779069767  24.8371339130435 56.9102441860465  C 24.4261878260869 56.4981104651162  22.5769252173913 50.9341918604651  23.1933460869565 49.6977662790697  C 23.8097669565217 48.4613406976744  23.3988208695652 44.7520709302325  23.3988208695652 44.1338581395348  C 23.3988208695652 43.5156453488371  21.5495582608695 44.1338581395348  23.1933460869565 41.454938372093  C 24.8371339130435 38.7760186046511  25.0426086956522 17.3446604651162  25.0426086956522 17.3446604651162  C 25.0426086956522 17.3446604651162  33.8779652173913 3.74398953488367  31.2068104347826 0.240788372092972  Z " fill-rule="nonzero" fill="#d0cde1" stroke="none" transform="matrix(1 0 0 1 768 503 )" />
  </g>
</svg>