<?xml version="1.0" encoding="utf-8"?>
<svg version="1.1" xmlns:xlink="http://www.w3.org/1999/xlink" width="36px" height="83px" xmlns="http://www.w3.org/2000/svg">
  <g transform="matrix(1 0 0 1 -765 -425 )">
    <path d="M 35.7919996153846 30.9591848319328  C 35.7919996153846 30.9591848319328  35.99649 5.61958823529413  22.7049230769231 0.263259957983209  C 22.7049230769231 0.263259957983209  14.5254980769231 2.32338970588236  11.2537315384615 7.26769273109245  L 8.39093192307691 7.8857323529412  L 8.39093192307691 10.769912605042  C 8.39093192307691 10.769912605042  3.07430653846152 27.868993697479  4.30122115384615 35.285462184874  C 5.52813576923079 42.7019306722689  4.30122115384615 57.1228319327731  2.2563623076923 61.0370840336135  C 0.211503461538449 64.9513361344538  -0.401950384615396 65.7753831512605  0.620480769230775 67.4234876470588  C 1.64291192307695 69.0715921428572  3.07430653846156 74.6339452521009  2.05187884615384 77.1061002521009  C 1.02945115384612 79.5782552521009  2.05187884615384 82.0504137394958  11.458215 82.6684533613446  C 20.8645511538461 83.2864929831933  34.1561146153846 83.2864929831933  34.1561146153846 79.9902839915967  C 34.1561146153846 76.694075  33.3381738461538 67.4234876470588  34.1561146153846 64.9513326470588  C 34.9740553846153 62.4791776470589  35.3830292307692 60.8310731512605  34.9740588461538 58.5649290336135  C 34.5650884615384 56.2987849159664  35.7919996153846 30.9591848319328  35.7919996153846 30.9591848319328  Z " fill-rule="nonzero" fill="#2f2e41" stroke="none" transform="matrix(1 0 0 1 765 425 )" />
  </g>
</svg>