<?xml version="1.0" encoding="utf-8"?>
<svg version="1.1" xmlns:xlink="http://www.w3.org/1999/xlink" width="33px" height="33px" xmlns="http://www.w3.org/2000/svg">
  <g transform="matrix(1 0 0 1 -762 -389 )">
    <path d="M 14.0835165625 12.8700850515464  C 15.348245 12.6995567010309  15.566615625 14.1360841237114  14.567045625 14.717622371134  C 14.0909406348751 14.949888138532  13.5660271102414 15.0672685744287  13.0352715625 15.0601555670103  C 12.487509375 15.0909680412371  11.83367625 15.0574339175258  11.5423653125 14.5973220618557  C 11.4045836016595 14.2945286801458  11.3407298777581 13.9638962083052  11.355966875 13.6321571134021  C 11.1427820445301 12.052831463384  9.78140802155029 10.8735175896137  8.17145402394331 10.8735175896137  C 7.98029743936894 10.8735175896137  7.78952225467465 10.8904018983457  7.60139875000004 10.9239695876289  C 7.65955795012269 11.5882462988414  7.8637591902058 12.2319066904624  8.19969906250007 12.8098651546392  C 6.9964479532987 13.2139000177239  5.67163578438528 13.0393825460143  4.61706093750001 12.3379243298969  L 4.41079031250002 15.0450708247423  C 3.68231531250003 15.3896146391753  2.74910281250004 15.4614831958763  2.11381500000003 14.9683543298969  C 1.47852718750002 14.4752254639175  1.42774156250002 13.317881443299  2.14628562500004 12.9534831958763  C 1.25872312500004 12.770316185567  0.173188125000046 12.3767588659794  0.10788593750004 11.4817750515464  C 0.048303750000052 10.6651475257732  0.924336875000044 10.0674460824742  1.08563812500005 9.26440639175258  C 1.21719812500003 8.60944824742268  0.854397500000061 7.89757360824743  1.11113750000003 7.28002793814434  C 1.44841812500003 6.46875865979383  2.67301718750002 6.26049123711341  2.91870218750004 5.4176031958763  C 3.04382718750005 4.98833783505156  2.86379500000005 4.52918195876289  2.90676718750004 4.08444061855671  C 3.01929031250006 2.91997268041238  4.49849812500004 2.4365056701031  5.67856781250002 2.50268938144331  C 6.8586375 2.56887309278351  8.14659656250002 2.87901865979382  9.14911593750002 2.25938072164949  C 9.63520250000003 1.95894123711341  9.97469687500003 1.47805639175259  10.40182 1.09989680412372  C 11.6124887300782 0.0722400072505319  13.3503432154726 -0.0773199183168789  14.72207 0.728095670103101  C 15.1966615625 1.02018309278352  15.6107565625 1.42495701030929  16.14003875 1.60249020618557  C 17.223195 1.96580319587629  18.353259375 1.27837917525774  19.4856784375 1.11991453608248  C 20.3248105117344 0.977663800135288  21.1835345877692 1.22384712529049  21.8159218750001 1.78796041237115  C 22.4389428630734 2.38077721276202  22.5813982247542 3.31408157763902  22.163109375 4.06257896907218  C 22.8274853125 3.95151865979383  23.5315059375 3.84409515463919  24.15765 4.09039082474228  C 24.7837940625 4.33668649484538  25.2622390625 5.07868979381445  24.972564375 5.6807594845361  C 24.8648977318226 5.83862094759137  24.7798692488381 6.01049576635387  24.719908125 6.19147360824744  C 24.661126875 6.54174989690723  25.001955 6.84121979381445  25.34607625 6.94166226804125  C 25.6901975 7.04210474226805  26.06368875 7.02331175257734  26.4006084375 7.14535051546393  C 27.7925175 7.64951226804125  27.45853 9.8517825773196  28.5540646875 10.8398468041237  C 28.9299818880933 11.11032428888  29.3271069207705 11.3506840595679  29.7416590625 11.5586378350516  C 30.8627691440196 12.3278831574607  31.2875750380979 13.7683157503581  30.7605925 15.0136391752577  C 30.5410015625 15.4949084536082  30.1730584375 15.9542004123711  30.217385 16.4804381443299  C 30.279555625 17.2185154639175  31.078636875 17.6227926804124  31.6394203125 18.1132203092784  C 32.6885538566945 19.0707986832418  32.9990072881682 20.5862642273281  32.40956125 21.8726313402062  C 31.894080625 22.9368439175258  30.7777215625 23.7435748453608  30.6643940625 24.9184122680412  C 30.6151346875 25.4290889690722  30.7701865625 25.9389321649485  30.7613590625 26.451857628866  C 30.6950568227221 27.412367424671  30.1898680401184 28.290548989049  29.389133125 28.8372303092784  C 28.5937904232993 29.3705754473864  27.6978432949397 29.7395294281843  26.754976875 29.9219845360825  C 26.312309375 30.0268496907217  25.7840928125 30.1910263917526  25.67695625 30.6288479381443  C 25.54993375 31.1479515463918  26.135154375 31.6203278350516  26.0745959374999 32.1510630927835  C 26.0366461529122 32.3816681426496  25.9078642197498 32.5879757428602  25.7164771875 32.7247663917526  C 24.9243121875 33.3379029896907  23.670659375 32.8122708247423  23.1862709375 31.9400502061856  C 22.7018825 31.0678295876289  22.7638021875 30.0108565979381  22.8388978125 29.0183594845361  L 23.1120346875 25.4093536082474  C 23.1970234375 24.2864112371134  23.1888696875 22.9528982474227  22.2639140625 22.297086185567  C 21.2413403125 21.5720591752577  19.75208125 22.1590237113402  18.5956753125 21.6690927835052  C 17.3907525 21.1586065979381  16.958514375 19.6645979381443  17.0071309375 18.3683035051546  C 17.0557475 17.072009072165  17.4310228125 15.7737074226804  17.215254375 14.4940354639175  C 16.947755 12.9082595876289  15.52255375 11.8424684536082  14.0835165625 12.8700850515464  Z " fill-rule="nonzero" fill="#2f2e41" stroke="none" transform="matrix(1 0 0 1 762 389 )" />
  </g>
</svg>