<?xml version="1.0" encoding="utf-8"?>
<svg version="1.1" xmlns:xlink="http://www.w3.org/1999/xlink" width="30px" height="63px" xmlns="http://www.w3.org/2000/svg">
  <g transform="matrix(1 0 0 1 -769 -436 )">
    <path d="M 29.7122581395349 16.102149  C 29.7122581395349 16.102149  31.1547523255814 -1.26548449999999  19.2026476744186 0.388577000000029  C 19.2026476744186 0.388577000000029  10.9598197674418 3.69670000000002  10.9598197674418 10.72645  C 10.9598197674418 17.7562  11.3719604651163 27.060306  9.92946627906977 30.16167  C 8.48697209302327 33.263034  7.25054651162791 34.296822  8.07482790697673 36.777916  C 8.89910930232556 39.25901  10.3416069767442 38.845492  8.07482790697673 40.706316  C 5.80804883720929 42.56714  6.01412093023253 39.4657725  5.80804883720929 42.5671365  C 5.60197674418604 45.6685005  7.86875581395348 46.082015  5.80804883720929 47.529321  C 3.74734186046509 48.976627  -1.6104976744186 54.765837  0.656281395348806 56.6266575  C 2.92306046511622 58.487478  8.89911279069765 64.4834575  10.9598197674418 62.209112  C 13.020526744186 59.9347665  14.0508662790697 54.1455635  16.9358720930232 54.559078  C 19.8208779069767 54.9725925  20.2330011627907 55.1793515  19.8208604651162 53.1117755  C 19.4087197674418 51.0441995  17.5540813953488 51.0441995  20.0269325581395 50.423926  C 22.4997837209302 49.8036525  23.5301337209302 51.250976  22.7058523255814 49.1833825  C 21.8815709302325 47.115789  21.2633546511627 46.288774  22.9119209302325 44.014439  C 24.5604872093023 41.740104  25.3847720930232 41.1198339999999  25.1787 38.845499  C 24.9726279069767 36.571164  29.7122581395349 16.102149  29.7122581395349 16.102149  Z " fill-rule="nonzero" fill="#000000" stroke="none" transform="matrix(1 0 0 1 769 436 )" />
  </g>
</svg>