<?xml version="1.0" encoding="utf-8"?>
<svg version="1.1" xmlns:xlink="http://www.w3.org/1999/xlink" width="30px" height="63px" xmlns="http://www.w3.org/2000/svg">
  <g transform="matrix(1 0 0 1 -767 -434 )">
    <path d="M 29.8711813953488 16.1183715  C 29.8711813953488 16.1183715  31.3136755813953 -1.24927249999998  19.3615744186047 0.404789000000022  C 19.3615744186047 0.404789000000022  11.1187430232558 3.71291200000002  11.1187430232558 10.7426725  C 11.1187430232558 17.772433  11.5308837209302 27.0765285  10.0883895348837 30.1778925  C 8.64589534883725 33.2792565  7.40946976744188 34.3130445  8.23375116279071 36.7941385  C 9.05803255813954 39.2752325  10.5005302325582 38.8617145  8.23375116279071 40.7225385  C 5.96697209302326 42.5833625  6.17304418604651 39.481995  5.96697558139534 42.583359  C 5.76090697674418 45.684723  8.02768255813954 46.0982375  5.96697558139534 47.5455435  C 3.90626860465114 48.9928495  -1.45157441860467 54.7820595  0.815204651162778 56.64288  C 3.08198372093023 58.5037005  9.05803604651162 64.49968  11.1187430232558 62.2253345  C 13.1794499999999 59.950989  14.2097895348837 54.161786  17.0947953488372 54.5753005  C 19.9798011627907 54.988815  20.3919279069767 55.195574  19.9797837209302 53.127998  C 19.5676395348837 51.060422  17.7130081395348 51.060422  20.1858558139535 50.4401485  C 22.6587034883721 49.819875  23.6890569767442 51.2671985  22.8647755813953 49.1996015  C 22.0404941860465 47.1320045  21.4222813953488 46.3049965  23.0708476744186 44.0306615  C 24.7194139534883 41.7563265  25.5436953488372 41.136053  25.3376232558139 38.8617215  C 25.1315511627907 36.58739  29.8711813953488 16.1183715  29.8711813953488 16.1183715  Z " fill-rule="nonzero" fill="#2f2e41" stroke="none" transform="matrix(1 0 0 1 767 434 )" />
  </g>
</svg>